<svg width="13" height="9" viewBox="0 0 13 9" fill="none" xmlns="http://www.w3.org/2000/svg">
<path d="M12.7204 2.394C12.3198 2.61853 7.39974 5.38247 7.15448 5.51979C6.90907 5.65743 6.73718 5.67528 6.5 5.67528C6.26268 5.67528 6.09093 5.65743 5.84538 5.51979C5.60011 5.38247 0.680335 2.61853 0.279501 2.394C-0.00245407 2.23603 7.19044e-07 2.42131 7.19044e-07 2.56438V8.25595C7.19044e-07 8.58119 0.403289 9 0.7163 9H12.2837C12.5967 9 13 8.58119 13 8.25595V2.56438C13 2.42131 13.0026 2.23603 12.7204 2.394ZM0.428856 0.842276C0.781445 1.04586 5.66367 3.86317 5.84538 3.96807C6.02723 4.07297 6.26268 4.12355 6.5 4.12355C6.73718 4.12355 6.97262 4.07297 7.15448 3.96807C7.33619 3.86317 12.2183 1.04586 12.571 0.842276C12.9237 0.638844 13.2577 0 12.6094 0H0.39029C-0.257399 0 0.0761232 0.638844 0.428856 0.842276Z" fill="#F0D8D9"/>
</svg>
