<svg width="32" height="32" viewBox="0 0 32 32" fill="none" xmlns="http://www.w3.org/2000/svg">
<g clip-path="url(#clip0)">
<path fill-rule="evenodd" clip-rule="evenodd" d="M16.2069 0.00120338L16.4126 0.00481345L16.6184 0.0108302L16.823 0.0204571L17.0275 0.0324907L17.2309 0.0457277L17.4331 0.0625747L17.6352 0.0818285L17.8362 0.103489L18.0372 0.12876L18.2369 0.155233L18.4355 0.184114L18.634 0.215401L18.8314 0.249096L19.0275 0.2864L19.2237 0.324907L19.4174 0.365821L19.6124 0.409142L19.8049 0.45487L19.9974 0.504208L20.1876 0.553546L20.3789 0.606493L20.5678 0.661848L20.7556 0.719609L20.9433 0.778574L21.1298 0.841149L21.3151 0.904927L21.4992 0.971112L21.6821 1.0397L21.8651 1.1107L22.0456 1.1829L22.2261 1.25751L22.4042 1.33453L22.5823 1.41395L22.7591 1.49457L22.9348 1.57881L23.1081 1.66425L23.2814 1.75089L23.4535 1.83994L23.6244 1.93139L23.794 2.02525L23.9613 2.12032L24.1286 2.21779L24.2946 2.31767L24.4583 2.41875L24.6219 2.52224L24.7832 2.62693L24.9432 2.73403L25.1021 2.84234L25.2597 2.95305L25.4162 3.06616L25.5702 3.18048L25.7242 3.296L25.8758 3.41393L26.0263 3.53306L26.1755 3.6546L26.3223 3.77855L26.4691 3.9037L26.6135 4.03005L26.7555 4.15761L26.8975 4.28757L27.0371 4.41994L27.1755 4.55351L27.3115 4.68829L27.4462 4.82427L27.5798 4.96266L27.7122 5.10225L27.8421 5.24424L27.9697 5.38624L28.096 5.53064L28.2212 5.67745L28.3451 5.82426L28.4667 5.97348L28.5858 6.1239L28.7037 6.27552L28.8193 6.42955L28.9336 6.58358L29.0467 6.74002L29.1574 6.89766L29.2657 7.0565L29.3728 7.21655L29.4775 7.3778L29.581 7.54146L29.6821 7.70511L29.782 7.87118L29.8794 8.03844L29.9745 8.20571L30.0684 8.37539L30.1598 8.54626L30.2489 8.71834L30.3355 8.89163L30.4209 9.06491L30.5052 9.2406L30.5858 9.4175L30.6652 9.59559L30.7422 9.77369L30.8168 9.95419L30.889 10.1347L30.96 10.3176L31.0286 10.5005L31.0948 10.6846L31.1586 10.87L31.2212 11.0565L31.2801 11.2442L31.3379 11.4319L31.3933 11.6208L31.445 11.8122L31.4955 12.0023L31.5449 12.1948L31.5906 12.3874L31.6339 12.5823L31.6748 12.7761L31.7133 12.9722L31.7507 13.1684L31.7843 13.3657L31.8156 13.5643L31.8445 13.7628L31.871 13.9626L31.8963 14.1635L31.9179 14.3645L31.9372 14.5667L31.954 14.7688L31.9673 14.9722L31.9793 15.1768L31.9889 15.3813L31.9949 15.5871L31.9985 15.7929L31.9997 15.9999L31.9985 16.2056L31.9949 16.4126L31.9889 16.6172L31.9793 16.8218L31.9673 17.0263L31.954 17.2297L31.9372 17.4319L31.9179 17.634L31.8963 17.8362L31.871 18.036L31.8445 18.2357L31.8156 18.4343L31.7843 18.6328L31.7507 18.8302L31.7133 19.0263L31.6748 19.2225L31.6339 19.4174L31.5906 19.6112L31.5449 19.8037L31.4955 19.9962L31.445 20.1876L31.3933 20.3777L31.3379 20.5666L31.2801 20.7556L31.2212 20.9421L31.1586 21.1286L31.0948 21.3139L31.0286 21.498L30.96 21.6821L30.889 21.8638L30.8168 22.0444L30.7422 22.2249L30.6652 22.4042L30.5858 22.581L30.5052 22.7579L30.4209 22.9336L30.3355 23.1081L30.2489 23.2814L30.1598 23.4523L30.0684 23.6232L29.9745 23.7928L29.8794 23.9613L29.782 24.1274L29.6821 24.2934L29.581 24.4583L29.4775 24.6207L29.3728 24.782L29.2657 24.942L29.1574 25.1021L29.0467 25.2585L28.9336 25.415L28.8193 25.5702L28.7037 25.723L28.5858 25.8746L28.4667 26.0251L28.3451 26.1743L28.2212 26.3223L28.096 26.4679L27.9697 26.6123L27.8421 26.7555L27.7122 26.8963L27.5798 27.0359L27.4462 27.1743L27.3115 27.3115L27.1755 27.4462L27.0371 27.5798L26.8975 27.711L26.7555 27.8409L26.6135 27.9697L26.4691 28.096L26.3223 28.2212L26.1755 28.3439L26.0263 28.4655L25.8758 28.5846L25.7242 28.7025L25.5702 28.8193L25.4162 28.9336L25.2597 29.0455L25.1021 29.1562L24.9432 29.2657L24.7832 29.3728L24.6219 29.4775L24.4583 29.581L24.2946 29.6821L24.1286 29.7808L23.9613 29.8782L23.794 29.9733L23.6244 30.0672L23.4535 30.1586L23.2814 30.2477L23.1081 30.3355L22.9348 30.4209L22.7591 30.504L22.5823 30.5846L22.4042 30.664L22.2261 30.741L22.0456 30.8156L21.8651 30.889L21.6821 30.96L21.4992 31.0274L21.3151 31.0936L21.1298 31.1586L20.9433 31.22L20.7556 31.2801L20.5678 31.3367L20.3789 31.3921L20.1876 31.445L19.9974 31.4955L19.8049 31.5437L19.6124 31.5894L19.4174 31.6327L19.2237 31.6736L19.0275 31.7133L18.8314 31.7495L18.634 31.7831L18.4355 31.8144L18.2369 31.8445L18.0372 31.871L17.8362 31.8951L17.6352 31.9167L17.4331 31.936L17.2309 31.9528L17.0275 31.9673L16.823 31.9781L16.6184 31.9877L16.4126 31.9937L16.2069 31.9985L15.9999 31.9997L15.7941 31.9985L15.5871 31.9937L15.3826 31.9877L15.178 31.9781L14.9734 31.9673L14.77 31.9528L14.5679 31.936L14.3657 31.9167L14.1635 31.8951L13.9638 31.871L13.764 31.8445L13.5655 31.8144L13.3669 31.7831L13.1696 31.7495L12.9734 31.7133L12.7773 31.6736L12.5823 31.6327L12.3886 31.5894L12.1961 31.5437L12.0035 31.4955L11.8122 31.445L11.6221 31.3921L11.4331 31.3367L11.2442 31.2801L11.0577 31.22L10.8712 31.1586L10.6858 31.0936L10.5017 31.0274L10.3176 30.96L10.1359 30.889L9.9554 30.8156L9.77489 30.741L9.59559 30.664L9.4187 30.5846L9.2418 30.504L9.06611 30.4209L8.89163 30.3355L8.71834 30.2477L8.54747 30.1586L8.37659 30.0672L8.20691 29.9733L8.03844 29.8782L7.87238 29.7808L7.70632 29.6821L7.54146 29.581L7.379 29.4775L7.21775 29.3728L7.05771 29.2657L6.89766 29.1562L6.74122 29.0455L6.58479 28.9336L6.42955 28.8193L6.27673 28.7025L6.1251 28.5846L5.97468 28.4655L5.82547 28.3439L5.67745 28.2212L5.53185 28.096L5.38744 27.9697L5.24424 27.8409L5.10345 27.711L4.96386 27.5798L4.82547 27.4462L4.68829 27.3115L4.55351 27.1743L4.41994 27.0359L4.28877 26.8963L4.15881 26.7555L4.03005 26.6123L3.9037 26.4679L3.77855 26.3223L3.65581 26.1743L3.53427 26.0251L3.41514 25.8746L3.29721 25.723L3.18048 25.5702L3.06616 25.415L2.95425 25.2585L2.84354 25.1021L2.73403 24.942L2.62693 24.782L2.52224 24.6207L2.41875 24.4583L2.31767 24.2934L2.219 24.1274L2.12152 23.9613L2.02646 23.7928L1.9326 23.6232L1.84114 23.4523L1.75209 23.2814L1.66425 23.1081L1.57881 22.9336L1.49578 22.7579L1.41515 22.581L1.33573 22.4042L1.25871 22.2249L1.18411 22.0444L1.1107 21.8638L1.0397 21.6821L0.972315 21.498L0.90613 21.3139L0.841149 21.1286L0.779777 20.9421L0.719609 20.7556L0.663051 20.5666L0.607697 20.3777L0.554749 20.1876L0.504208 19.9962L0.456073 19.8037L0.410346 19.6112L0.367025 19.4174L0.326111 19.2225L0.2864 19.0263L0.250299 18.8302L0.216605 18.6328L0.185317 18.4343L0.155233 18.2357L0.12876 18.036L0.104692 17.8362L0.0830318 17.634L0.063778 17.4319L0.046931 17.2297L0.0324907 17.0263L0.0216605 16.8218L0.0120336 16.6172L0.00601679 16.4126L0.00120334 16.2056L0 15.9999L0.00120334 15.7929L0.00601679 15.5871L0.0120336 15.3813L0.0216605 15.1768L0.0324907 14.9722L0.046931 14.7688L0.063778 14.5667L0.0830318 14.3645L0.104692 14.1635L0.12876 13.9626L0.155233 13.7628L0.185317 13.5643L0.216605 13.3657L0.250299 13.1684L0.2864 12.9722L0.326111 12.7761L0.367025 12.5823L0.410346 12.3874L0.456073 12.1948L0.504208 12.0023L0.554749 11.8122L0.607697 11.6208L0.663051 11.4319L0.719609 11.2442L0.779777 11.0565L0.841149 10.87L0.90613 10.6846L0.972315 10.5005L1.0397 10.3176L1.1107 10.1347L1.18411 9.95419L1.25871 9.77369L1.33573 9.59559L1.41515 9.4175L1.49578 9.2406L1.57881 9.06491L1.66425 8.89163L1.75209 8.71834L1.84114 8.54626L1.9326 8.37539L2.02646 8.20571L2.12152 8.03844L2.219 7.87118L2.31767 7.70511L2.41875 7.54146L2.52224 7.3778L2.62693 7.21655L2.73403 7.0565L2.84354 6.89766L2.95425 6.74002L3.06616 6.58358L3.18048 6.42955L3.29721 6.27552L3.41514 6.1239L3.53427 5.97348L3.65581 5.82426L3.77855 5.67745L3.9037 5.53064L4.03005 5.38624L4.15881 5.24424L4.28877 5.10225L4.41994 4.96266L4.55351 4.82427L4.68829 4.68829L4.82547 4.55351L4.96386 4.41994L5.10345 4.28757L5.24424 4.15761L5.38744 4.03005L5.53185 3.9037L5.67745 3.77855L5.82547 3.6546L5.97468 3.53306L6.1251 3.41393L6.27673 3.296L6.42955 3.18048L6.58479 3.06616L6.74122 2.95305L6.89766 2.84234L7.05771 2.73403L7.21775 2.62693L7.379 2.52224L7.54146 2.41875L7.70632 2.31767L7.87238 2.21779L8.03844 2.12032L8.20691 2.02525L8.37659 1.93139L8.54747 1.83994L8.71834 1.75089L8.89163 1.66425L9.06611 1.57881L9.2418 1.49457L9.4187 1.41395L9.59559 1.33453L9.77489 1.25751L9.9554 1.1829L10.1359 1.1107L10.3176 1.0397L10.5017 0.971112L10.6858 0.904927L10.8712 0.841149L11.0577 0.778574L11.2442 0.719609L11.4331 0.661848L11.6221 0.606493L11.8122 0.553546L12.0035 0.504208L12.1961 0.45487L12.3886 0.409142L12.5823 0.365821L12.7773 0.324907L12.9734 0.2864L13.1696 0.249096L13.3669 0.215401L13.5655 0.184114L13.764 0.155233L13.9638 0.12876L14.1635 0.103489L14.3657 0.0818285L14.5679 0.0625747L14.77 0.0457277L14.9734 0.0324907L15.178 0.0204571L15.3826 0.0108302L15.5871 0.00481345L15.7941 0.00120338L15.9999 0L16.2069 0.00120338ZM15.8061 1.0012L15.6124 1.00481L15.4199 1.01082L15.2285 1.01925L15.0372 1.03008L14.8459 1.04331L14.6557 1.05896L14.4668 1.07701L14.2779 1.09746L14.0901 1.12033L13.9024 1.1456L13.7159 1.17207L13.5306 1.20216L13.3453 1.23344L13.1611 1.26834L12.9782 1.30444L12.7953 1.34295L12.6136 1.38386L12.4331 1.42718L12.2526 1.47171L12.0733 1.51984L11.8952 1.56918L11.7183 1.62093L11.5414 1.67387L11.3657 1.73043L11.1912 1.78819L11.018 1.84836L10.8459 1.90973L10.6738 1.97471L10.5029 2.0409L10.3333 2.10829L10.1648 2.17808L9.99751 2.25028L9.83025 2.32489L9.66539 2.4007L9.50053 2.47892L9.33687 2.55955L9.17442 2.64138L9.01437 2.72441L8.85432 2.81105L8.69548 2.89769L8.53784 2.98794L8.3814 3.07819L8.22617 3.17206L8.07214 3.26712L7.91931 3.36339L7.76769 3.46207L7.61727 3.56195L7.46805 3.66423L7.32004 3.76772L7.17443 3.87362L7.02883 3.98071L6.88442 4.08902L6.74243 4.19973L6.60163 4.31284L6.46204 4.42596L6.32366 4.54148L6.18647 4.65941L6.0517 4.77734L5.91692 4.89768L5.78455 5.02042L5.65339 5.14316L5.52342 5.26831L5.39587 5.39466L5.26951 5.52342L5.14436 5.65339L5.02042 5.78335L4.89888 5.91692L4.77854 6.05049L4.65941 6.18647L4.54268 6.32245L4.42716 6.46084L4.31284 6.60043L4.20093 6.74122L4.09022 6.88442L3.98192 7.02762L3.87482 7.17323L3.76892 7.32004L3.66543 7.46685L3.56315 7.61607L3.46327 7.76649L3.36459 7.91811L3.26712 8.07094L3.17206 8.22497L3.0794 8.3802L2.98794 8.53664L2.89889 8.69428L2.81105 8.85312L2.72561 9.01317L2.64138 9.17442L2.55955 9.33687L2.48013 9.49932L2.40191 9.66418L2.32609 9.83025L2.25149 9.99631L2.17929 10.1636L2.10949 10.332L2.0409 10.5017L1.97471 10.6726L1.91094 10.8447L1.84836 11.0168L1.78819 11.1912L1.73043 11.3657L1.67508 11.5414L1.62093 11.7171L1.56918 11.8952L1.51984 12.0733L1.47291 12.2526L1.42718 12.4319L1.38507 12.6136L1.34415 12.7953L1.30565 12.977L1.26834 13.1611L1.23465 13.3453L1.20336 13.5294L1.17328 13.7159L1.1456 13.9024L1.12153 14.0889L1.09867 14.2767L1.07821 14.4656L1.06016 14.6545L1.04452 14.8446L1.03128 15.036L1.02045 15.2273L1.01082 15.4199L1.00481 15.6124L1.0012 15.8049L0.999992 15.9999L1.0012 16.1936L1.00481 16.3874L1.01082 16.5799L1.02045 16.7712L1.03128 16.9626L1.04452 17.1539L1.06016 17.344L1.07821 17.533L1.09867 17.7219L1.12153 17.9096L1.1456 18.0973L1.17328 18.2839L1.20336 18.4692L1.23465 18.6545L1.26834 18.8386L1.30565 19.0215L1.34415 19.2044L1.38507 19.3861L1.42718 19.5666L1.47291 19.7471L1.51984 19.9264L1.56918 20.1045L1.62093 20.2814L1.67508 20.4583L1.73043 20.634L1.78819 20.8085L1.84836 20.9818L1.91094 21.1539L1.97471 21.3259L2.0409 21.4968L2.10949 21.6665L2.17929 21.835L2.25149 22.0022L2.32609 22.1695L2.40191 22.3344L2.48013 22.4992L2.55955 22.6629L2.64138 22.8253L2.72561 22.9854L2.81105 23.1454L2.89889 23.3043L2.98794 23.4619L3.0794 23.6183L3.17206 23.7736L3.26712 23.9276L3.36459 24.0804L3.46327 24.2321L3.56315 24.3825L3.66543 24.5317L3.76892 24.6797L3.87482 24.8253L3.98192 24.9709L4.09022 25.1153L4.20093 25.2573L4.31284 25.3981L4.42716 25.5377L4.54268 25.6761L4.65941 25.8133L4.77854 25.9481L4.89888 26.0828L5.02042 26.2152L5.14436 26.3464L5.26951 26.4763L5.39587 26.6039L5.52342 26.7302L5.65339 26.8554L5.78455 26.9793L5.91692 27.1009L6.0517 27.2212L6.18647 27.3403L6.32366 27.4571L6.46204 27.5726L6.60163 27.6869L6.74243 27.7988L6.88442 27.9095L7.02883 28.0178L7.17443 28.1249L7.32004 28.2308L7.46805 28.3343L7.61727 28.4366L7.76769 28.5365L7.91931 28.6352L8.07214 28.7326L8.22617 28.8277L8.3814 28.9204L8.53784 29.0118L8.69548 29.1009L8.85432 29.1887L9.01437 29.2741L9.17442 29.3584L9.33687 29.4402L9.50053 29.5196L9.66539 29.5978L9.83025 29.6737L9.99751 29.7483L10.1648 29.8205L10.3333 29.8903L10.5029 29.9588L10.6738 30.025L10.8459 30.0888L11.018 30.1514L11.1912 30.2116L11.3657 30.2693L11.5414 30.3247L11.7183 30.3788L11.8952 30.4306L12.0733 30.4799L12.2526 30.5268L12.4331 30.5726L12.6136 30.6147L12.7953 30.6556L12.9782 30.6941L13.1611 30.7314L13.3453 30.7651L13.5306 30.7964L13.7159 30.8265L13.9024 30.8541L14.0901 30.8782L14.2779 30.9011L14.4668 30.9215L14.6557 30.9396L14.8459 30.9552L15.0372 30.9685L15.2285 30.9793L15.4199 30.9889L15.6124 30.9949L15.8061 30.9986L15.9999 30.9998L16.1948 30.9986L16.3874 30.9949L16.5799 30.9889L16.7724 30.9793L16.9638 30.9685L17.1551 30.9552L17.3452 30.9396L17.5342 30.9215L17.7231 30.9011L17.9108 30.8782L18.0973 30.8541L18.2839 30.8265L18.4704 30.7964L18.6545 30.7651L18.8386 30.7314L19.0227 30.6941L19.2044 30.6556L19.3861 30.6147L19.5678 30.5726L19.7471 30.5268L19.9264 30.4799L20.1045 30.4306L20.2826 30.3788L20.4583 30.3247L20.634 30.2693L20.8085 30.2116L20.983 30.1514L21.1551 30.0888L21.3271 30.025L21.498 29.9588L21.6677 29.8903L21.8362 29.8205L22.0034 29.7483L22.1695 29.6737L22.3356 29.5978L22.5004 29.5196L22.6629 29.4402L22.8253 29.3584L22.9866 29.2741L23.1466 29.1887L23.3055 29.1009L23.4631 29.0118L23.6195 28.9204L23.7748 28.8277L23.9288 28.7326L24.0816 28.6352L24.2333 28.5365L24.3837 28.4366L24.5329 28.3343L24.6797 28.2308L24.8265 28.1249L24.9721 28.0178L25.1153 27.9095L25.2585 27.7988L25.3993 27.6869L25.5389 27.5726L25.6773 27.4571L25.8133 27.3403L25.9493 27.2212L26.0828 27.1009L26.2164 26.9793L26.3464 26.8554L26.4763 26.7302L26.6051 26.6039L26.7314 26.4763L26.8566 26.3464L26.9793 26.2152L27.1021 26.0828L27.2224 25.9481L27.3403 25.8133L27.4583 25.6761L27.5738 25.5377L27.6869 25.3981L27.8 25.2573L27.9107 25.1153L28.019 24.9709L28.1261 24.8253L28.232 24.6797L28.3355 24.5317L28.4378 24.3825L28.5377 24.2321L28.6364 24.0804L28.7326 23.9276L28.8277 23.7736L28.9216 23.6183L29.0118 23.4619L29.1021 23.3043L29.1887 23.1454L29.2753 22.9854L29.3584 22.8253L29.4402 22.6629L29.5208 22.4992L29.599 22.3344L29.6749 22.1695L29.7495 22.0022L29.8217 21.835L29.8915 21.6665L29.9588 21.4968L30.025 21.3259L30.09 21.1539L30.1514 20.9818L30.2116 20.8085L30.2693 20.634L30.3259 20.4583L30.3788 20.2814L30.4306 20.1045L30.4799 19.9264L30.528 19.7471L30.5726 19.5666L30.6159 19.3861L30.6568 19.2044L30.6953 19.0215L30.7314 18.8386L30.7663 18.6545L30.7976 18.4692L30.8277 18.2839L30.8541 18.0973L30.8794 17.9096L30.9023 17.7219L30.9227 17.533L30.9408 17.344L30.9564 17.1539L30.9697 16.9626L30.9805 16.7712L30.9889 16.5799L30.9949 16.3874L30.9986 16.1936L30.9998 15.9999L30.9986 15.8049L30.9949 15.6124L30.9889 15.4199L30.9805 15.2273L30.9697 15.036L30.9564 14.8446L30.9408 14.6545L30.9227 14.4656L30.9023 14.2767L30.8794 14.0889L30.8541 13.9024L30.8277 13.7159L30.7976 13.5294L30.7663 13.3453L30.7314 13.1611L30.6953 12.977L30.6568 12.7953L30.6159 12.6136L30.5726 12.4319L30.528 12.2526L30.4799 12.0733L30.4306 11.8952L30.3788 11.7171L30.3259 11.5414L30.2693 11.3657L30.2116 11.1912L30.1514 11.0168L30.09 10.8447L30.025 10.6726L29.9588 10.5017L29.8915 10.332L29.8217 10.1636L29.7495 9.99631L29.6749 9.83025L29.599 9.66418L29.5208 9.49932L29.4402 9.33687L29.3584 9.17442L29.2753 9.01317L29.1887 8.85312L29.1021 8.69428L29.0118 8.53664L28.9216 8.3802L28.8277 8.22497L28.7326 8.07094L28.6364 7.91811L28.5377 7.76649L28.4378 7.61607L28.3355 7.46685L28.232 7.32004L28.1261 7.17323L28.019 7.02762L27.9107 6.88442L27.8 6.74122L27.6869 6.60043L27.5738 6.46084L27.4583 6.32245L27.3403 6.18647L27.2224 6.05049L27.1021 5.91692L26.9793 5.78335L26.8566 5.65339L26.7314 5.52342L26.6051 5.39466L26.4763 5.26831L26.3464 5.14316L26.2164 5.02042L26.0828 4.89768L25.9493 4.77734L25.8133 4.65941L25.6773 4.54148L25.5389 4.42596L25.3993 4.31284L25.2573 4.19973L25.1153 4.08902L24.9721 3.98071L24.8265 3.87362L24.6797 3.76772L24.5329 3.66423L24.3837 3.56195L24.2333 3.46207L24.0816 3.36339L23.9288 3.26712L23.7748 3.17206L23.6195 3.07819L23.4631 2.98794L23.3055 2.89769L23.1466 2.81105L22.9866 2.72441L22.8253 2.64138L22.6629 2.55955L22.5004 2.47892L22.3356 2.4007L22.1695 2.32489L22.0034 2.25028L21.8362 2.17808L21.6677 2.10829L21.498 2.0409L21.3271 1.97471L21.1551 1.90973L20.983 1.84836L20.8085 1.78819L20.634 1.73043L20.4583 1.67387L20.2826 1.62093L20.1045 1.56918L19.9264 1.51984L19.7471 1.47171L19.5678 1.42718L19.3861 1.38386L19.2044 1.34295L19.0227 1.30444L18.8386 1.26834L18.6545 1.23344L18.4704 1.20216L18.2839 1.17207L18.0973 1.1456L17.9108 1.12033L17.7231 1.09746L17.5342 1.07701L17.3452 1.05896L17.1551 1.04331L16.9638 1.03008L16.7724 1.01925L16.5799 1.01082L16.3874 1.00481L16.1948 1.0012L15.9999 0.999992L15.8061 1.0012Z" fill="#666D89"/>
<path d="M9.07871 13.234H12.0719V23H9.07871V13.234ZM12.1701 10.5179C12.1701 11.3564 11.5597 12.0356 10.5552 12.0356C9.6104 12.0356 9 11.3564 9 10.5179C9 9.659 9.63016 9 10.5948 9C11.5597 9 12.1506 9.659 12.1701 10.5179Z" fill="#666D89"/>
<path d="M13.8629 16.3448C13.8629 15.1267 13.8237 14.1083 13.7845 13.2294H16.3834L16.5217 14.5874H16.5807C16.9744 13.9482 17.9393 13.0094 19.5541 13.0094C21.5231 13.0094 23 14.3478 23 17.2234V22.9953H20.0068V17.5831C20.0068 16.3248 19.5736 15.4664 18.4904 15.4664C17.6635 15.4664 17.1716 16.0454 16.9549 16.6045C16.8759 16.8041 16.8562 17.0839 16.8562 17.3635V22.9953H13.8629V16.3448Z" fill="#666D89"/>
</g>
<defs>
<clipPath id="clip0">
<rect width="32" height="32" fill="white"/>
</clipPath>
</defs>
</svg>
