<svg width="216" height="458" viewBox="0 0 216 458" fill="none" xmlns="http://www.w3.org/2000/svg">
<g clip-path="url(#clip0)">
<path fill-rule="evenodd" clip-rule="evenodd" d="M215.5 27C215.5 12.098 203.402 0 188.5 0H26.4998C11.5979 0 -0.500122 12.098 -0.500122 27V431C-0.500122 445.902 11.5979 458 26.4998 458H188.5C203.402 458 215.5 445.902 215.5 431V27Z" fill="#F2F2F2"/>
<path fill-rule="evenodd" clip-rule="evenodd" d="M126.502 38.4801C126.502 37.1014 125.382 35.9817 124.004 35.9817H92.9985C91.6177 35.9817 90.4979 37.1014 90.4979 38.4801C90.4979 39.8598 91.6177 40.9795 92.9985 40.9795H124.004C125.382 40.9795 126.502 39.8598 126.502 38.4801Z" fill="#ACACAC"/>
<path d="M108 449.626C119.564 449.626 128.938 440.252 128.938 428.688C128.938 417.124 119.564 407.75 108 407.75C96.4361 407.75 87.0619 417.124 87.0619 428.688C87.0619 440.252 96.4361 449.626 108 449.626Z" fill="#FAFAFA"/>
<path fill-rule="evenodd" clip-rule="evenodd" d="M112.212 420.413L112.318 420.418L112.421 420.424L112.525 420.433L112.629 420.445L112.731 420.459L112.832 420.476L112.933 420.495L113.033 420.517L113.131 420.541L113.23 420.567L113.327 420.597L113.422 420.627L113.517 420.661L113.611 420.697L113.704 420.734L113.795 420.775L113.885 420.817L113.975 420.861L114.062 420.908L114.149 420.956L114.235 421.006L114.319 421.059L114.401 421.113L114.483 421.17L114.562 421.228L114.641 421.288L114.717 421.35L114.793 421.414L114.866 421.479L114.938 421.546L115.009 421.615L115.078 421.686L115.144 421.758L115.21 421.831L115.274 421.906L115.336 421.984L115.396 422.062L115.454 422.141L115.51 422.223L115.565 422.305L115.617 422.389L115.668 422.474L115.716 422.562L115.763 422.649L115.806 422.739L115.849 422.828L115.889 422.92L115.928 423.013L115.963 423.107L115.996 423.202L116.027 423.298L116.057 423.394L116.083 423.492L116.107 423.591L116.129 423.691L116.148 423.792L116.165 423.893L116.179 423.995L116.191 424.099L116.2 424.202L116.207 424.307L116.211 424.412L116.212 424.518V432.73L116.211 432.836L116.207 432.942L116.2 433.046L116.191 433.15L116.179 433.253L116.165 433.356L116.148 433.456L116.129 433.558L116.107 433.657L116.083 433.756L116.057 433.854L116.027 433.951L115.996 434.047L115.963 434.141L115.928 434.235L115.889 434.328L115.849 434.42L115.806 434.51L115.763 434.599L115.716 434.687L115.668 434.774L115.617 434.859L115.565 434.943L115.51 435.026L115.454 435.107L115.396 435.186L115.336 435.265L115.274 435.342L115.21 435.417L115.144 435.49L115.078 435.562L115.009 435.633L114.938 435.702L114.866 435.77L114.793 435.834L114.717 435.899L114.641 435.96L114.562 436.02L114.483 436.079L114.401 436.135L114.319 436.189L114.235 436.242L114.149 436.292L114.062 436.341L113.975 436.387L113.885 436.432L113.795 436.473L113.704 436.514L113.611 436.552L113.517 436.587L113.422 436.621L113.327 436.651L113.23 436.681L113.131 436.707L113.033 436.731L112.933 436.753L112.832 436.772L112.731 436.789L112.629 436.803L112.525 436.815L112.421 436.825L112.318 436.831L112.212 436.835L112.106 436.837H103.894L103.788 436.835L103.682 436.831L103.578 436.825L103.474 436.815L103.371 436.803L103.269 436.789L103.168 436.772L103.067 436.753L102.967 436.731L102.868 436.707L102.77 436.681L102.673 436.651L102.578 436.621L102.483 436.587L102.389 436.552L102.296 436.514L102.204 436.473L102.115 436.432L102.025 436.387L101.938 436.341L101.85 436.292L101.765 436.242L101.681 436.189L101.599 436.135L101.517 436.079L101.437 436.02L101.359 435.96L101.282 435.899L101.207 435.834L101.134 435.77L101.062 435.702L100.991 435.633L100.922 435.562L100.855 435.49L100.79 435.417L100.725 435.342L100.664 435.265L100.604 435.186L100.545 435.107L100.489 435.026L100.435 434.943L100.382 434.859L100.332 434.774L100.284 434.687L100.237 434.599L100.192 434.51L100.151 434.42L100.11 434.328L100.072 434.235L100.037 434.141L100.003 434.047L99.9726 433.951L99.9431 433.854L99.9168 433.756L99.8928 433.657L99.871 433.558L99.8513 433.456L99.8349 433.356L99.8207 433.253L99.8087 433.15L99.8 433.046L99.7923 432.942L99.7891 432.836L99.788 432.73V424.518L99.7891 424.412L99.7923 424.307L99.8 424.202L99.8087 424.099L99.8207 423.995L99.8349 423.893L99.8513 423.792L99.871 423.691L99.8928 423.591L99.9168 423.492L99.9431 423.394L99.9726 423.298L100.003 423.202L100.037 423.107L100.072 423.013L100.11 422.92L100.151 422.828L100.192 422.739L100.237 422.649L100.284 422.562L100.332 422.474L100.382 422.389L100.435 422.305L100.489 422.223L100.545 422.141L100.604 422.062L100.664 421.984L100.725 421.906L100.79 421.831L100.855 421.758L100.922 421.686L100.991 421.615L101.062 421.546L101.134 421.479L101.207 421.414L101.282 421.35L101.359 421.288L101.437 421.228L101.517 421.17L101.599 421.113L101.681 421.059L101.765 421.006L101.85 420.956L101.938 420.908L102.025 420.861L102.115 420.817L102.204 420.775L102.296 420.734L102.389 420.697L102.483 420.661L102.578 420.627L102.673 420.597L102.77 420.567L102.868 420.541L102.967 420.517L103.067 420.495L103.168 420.476L103.269 420.459L103.371 420.445L103.474 420.433L103.578 420.424L103.682 420.418L103.788 420.413L103.894 420.412H112.106L112.212 420.413ZM103.906 422.301L103.836 422.302L103.778 422.304L103.721 422.307L103.666 422.313L103.61 422.319L103.554 422.327L103.5 422.336L103.446 422.346L103.393 422.358L103.339 422.371L103.287 422.385L103.235 422.4L103.183 422.417L103.133 422.435L103.082 422.454L103.032 422.474L102.983 422.496L102.935 422.518L102.887 422.542L102.839 422.567L102.793 422.593L102.747 422.621L102.701 422.649L102.656 422.679L102.613 422.709L102.569 422.741L102.526 422.774L102.485 422.806L102.444 422.841L102.404 422.877L102.365 422.914L102.326 422.951L102.289 422.989L102.252 423.028L102.217 423.069L102.182 423.109L102.148 423.151L102.117 423.193L102.085 423.237L102.054 423.281L102.025 423.325L101.997 423.371L101.969 423.417L101.943 423.464L101.918 423.511L101.894 423.559L101.872 423.607L101.85 423.656L101.829 423.707L101.811 423.757L101.792 423.808L101.776 423.859L101.761 423.911L101.746 423.963L101.733 424.017L101.721 424.07L101.711 424.124L101.702 424.178L101.694 424.234L101.689 424.29L101.683 424.346L101.68 424.402L101.678 424.46L101.677 424.53V432.718L101.678 432.789L101.68 432.846L101.683 432.903L101.689 432.959L101.694 433.015L101.702 433.07L101.711 433.124L101.721 433.179L101.733 433.232L101.746 433.285L101.761 433.337L101.776 433.39L101.792 433.441L101.811 433.491L101.829 433.541L101.85 433.592L101.872 433.641L101.894 433.689L101.918 433.737L101.943 433.785L101.969 433.832L101.997 433.878L102.025 433.923L102.054 433.967L102.085 434.011L102.117 434.055L102.148 434.097L102.182 434.139L102.217 434.18L102.252 434.22L102.289 434.259L102.326 434.297L102.365 434.335L102.404 434.372L102.444 434.407L102.485 434.442L102.526 434.475L102.569 434.507L102.613 434.54L102.656 434.57L102.701 434.599L102.746 434.627L102.793 434.655L102.839 434.681L102.887 434.706L102.935 434.73L102.983 434.753L103.032 434.774L103.082 434.794L103.133 434.814L103.183 434.831L103.234 434.848L103.287 434.863L103.339 434.877L103.393 434.89L103.446 434.902L103.5 434.912L103.554 434.922L103.61 434.93L103.666 434.936L103.721 434.941L103.778 434.944L103.836 434.946L103.906 434.947H112.094L112.164 434.946L112.221 434.944L112.278 434.941L112.334 434.936L112.39 434.93L112.445 434.922L112.5 434.912L112.554 434.902L112.607 434.89L112.661 434.877L112.713 434.863L112.765 434.848L112.817 434.831L112.867 434.814L112.917 434.794L112.968 434.774L113.017 434.753L113.065 434.73L113.113 434.706L113.161 434.681L113.207 434.655L113.254 434.627L113.298 434.599L113.343 434.569L113.387 434.54L113.431 434.507L113.473 434.475L113.515 434.442L113.555 434.408L113.596 434.372L113.635 434.335L113.673 434.297L113.71 434.259L113.747 434.22L113.782 434.18L113.817 434.139L113.851 434.097L113.883 434.055L113.915 434.012L113.945 433.967L113.975 433.923L114.003 433.878L114.03 433.832L114.057 433.785L114.082 433.737L114.106 433.689L114.128 433.641L114.149 433.592L114.17 433.541L114.189 433.491L114.207 433.441L114.224 433.39L114.239 433.337L114.253 433.285L114.266 433.232L114.278 433.179L114.288 433.124L114.298 433.07L114.306 433.015L114.311 432.959L114.317 432.903L114.32 432.846L114.322 432.788L114.323 432.718V424.53L114.322 424.46L114.32 424.402L114.317 424.346L114.311 424.29L114.306 424.234L114.298 424.178L114.288 424.124L114.278 424.07L114.266 424.017L114.253 423.963L114.239 423.911L114.224 423.859L114.207 423.808L114.189 423.757L114.17 423.707L114.149 423.656L114.128 423.607L114.106 423.559L114.082 423.511L114.057 423.464L114.03 423.417L114.003 423.371L113.975 423.325L113.945 423.281L113.915 423.237L113.883 423.193L113.851 423.151L113.817 423.109L113.782 423.069L113.747 423.028L113.71 422.989L113.673 422.951L113.635 422.914L113.596 422.877L113.555 422.841L113.515 422.806L113.473 422.774L113.431 422.741L113.387 422.709L113.343 422.679L113.298 422.649L113.253 422.621L113.207 422.593L113.161 422.567L113.113 422.542L113.065 422.518L113.017 422.496L112.968 422.474L112.917 422.454L112.867 422.435L112.817 422.417L112.764 422.4L112.713 422.385L112.661 422.371L112.607 422.358L112.554 422.346L112.5 422.336L112.445 422.327L112.39 422.319L112.334 422.313L112.278 422.307L112.221 422.304L112.164 422.302L112.094 422.301H103.906Z" fill="#BABABA"/>
<path d="M108 25.36C110.451 25.36 112.438 23.3731 112.438 20.922C112.438 18.471 110.451 16.484 108 16.484C105.549 16.484 103.562 18.471 103.562 20.922C103.562 23.3731 105.549 25.36 108 25.36Z" fill="#D8D8D8"/>
<path d="M108 22.906C109.087 22.906 109.968 22.0249 109.968 20.938C109.968 19.8511 109.087 18.97 108 18.97C106.913 18.97 106.032 19.8511 106.032 20.938C106.032 22.0249 106.913 22.906 108 22.906Z" fill="#EB5055"/>
<path d="M201.999 65.0237H13.9981V398.024H201.999V65.0237Z" fill="#161616"/>
<path fill-rule="evenodd" clip-rule="evenodd" d="M203.15 62.2533L204.119 62.9026L204.773 63.8778L205.002 65.0237V398.024L204.773 399.172L204.119 400.147L203.15 400.797L201.999 401.026H13.9981L12.8515 400.797L11.8781 400.147L11.2291 399.172L10.9998 398.024V65.0237L11.2291 63.8778L11.8781 62.9026L12.8515 62.2533L13.9981 62.0241H201.999L203.15 62.2533ZM13.9981 65.0237V398.024H201.999V65.0237H13.9981Z" fill="#C7C7C7"/>
</g>
<defs>
<clipPath id="clip0">
<rect width="216" height="458" fill="white" transform="translate(-0.00012207)"/>
</clipPath>
</defs>
</svg>
