<svg width="60" height="60" viewBox="0 0 60 60" fill="none" xmlns="http://www.w3.org/2000/svg">
<g clip-path="url(#clip0)">
<path fill-rule="evenodd" clip-rule="evenodd" d="M30.3875 0.00203387L30.5807 0.00508475L30.9672 0.0152542L31.3516 0.0294916L31.5438 0.0386441L31.9261 0.061017L32.1173 0.0732204L32.3085 0.0874577L32.4987 0.102712L32.6889 0.118983L32.878 0.136271L33.0672 0.154576L33.4444 0.195254L33.6326 0.217627L33.8207 0.241017L34.0089 0.265424L34.196 0.290848L34.3821 0.317288L34.7543 0.374238L34.9404 0.404746L35.1255 0.436272L35.3105 0.468814L35.4946 0.502373L35.6787 0.53695L35.8628 0.572543L36.0458 0.609153L36.2289 0.647797L36.4109 0.686441L36.775 0.767797L36.956 0.810509L37.137 0.854238L37.317 0.898984L37.497 0.944747L37.677 0.991526L37.856 1.03932L38.035 1.08814L38.2129 1.13797L38.3909 1.18881L38.7448 1.29458L38.9207 1.34848L39.2726 1.46034L39.4475 1.51831L39.6214 1.57627L39.9692 1.69627L40.315 1.82034L40.6587 1.94848L41.0004 2.08068L41.34 2.21695L41.6777 2.35729L41.8455 2.42949L42.0122 2.5017L42.18 2.57593L42.3458 2.65017L42.5116 2.72543L42.6773 2.80271L42.8421 2.88L43.0058 2.95831L43.1695 3.03763L43.3333 3.11797L43.495 3.19933L43.6577 3.2817L43.8184 3.36509L43.98 3.4495L44.1397 3.53492L44.459 3.7078L44.6177 3.79627L44.7753 3.88475L44.9329 3.97424L45.0895 4.06577L45.2451 4.15729L45.4007 4.24983L45.5563 4.34339L45.7099 4.43797L45.8645 4.53255L46.017 4.62916L46.1695 4.72678L46.3211 4.82441L46.4726 4.92306L46.6231 5.02272L46.7736 5.12339L46.9221 5.22509L47.0716 5.3278L47.219 5.43051L47.3665 5.53526L47.5129 5.64001L47.6594 5.74577L47.8048 5.85255L48.0936 6.06814L48.237 6.17797L48.3794 6.2878L48.5217 6.39865L48.6631 6.51051L48.9438 6.73628L49.0831 6.85018L49.2214 6.96611L49.496 7.19797L49.7685 7.43391L49.9038 7.55289L50.038 7.67289L50.3045 7.91492L50.5678 8.16001L50.698 8.28408L50.8282 8.40916L50.9573 8.53425L51.0855 8.66035L51.2136 8.78747L51.3397 8.91458L51.4658 9.04272L51.5909 9.17187L51.716 9.30204L51.8401 9.43221L52.0851 9.6956L52.3272 9.96204L52.4472 10.0963L52.5662 10.2315L52.8021 10.5041L53.034 10.7787L53.1499 10.917L53.2638 11.0563L53.4895 11.337L53.6014 11.4783L53.7123 11.6207L53.8221 11.7631L53.9319 11.9065L54.1475 12.1953L54.2543 12.3407L54.3601 12.4871L54.4648 12.6336L54.5695 12.781L54.6723 12.9285L54.775 13.078L54.8767 13.2265L54.9773 13.377L55.077 13.5275L55.1757 13.679L55.2733 13.8305L55.3709 13.9831L55.4675 14.1356L55.5621 14.2902L55.6567 14.4437L55.7502 14.5993L55.8428 14.7549L55.9343 14.9105L56.0258 15.0671L56.1153 15.2248L56.2038 15.3824L56.2923 15.541L56.4651 15.8604L56.5506 16.02L56.635 16.1817L56.7184 16.3424L56.8007 16.5051L56.8821 16.6668L56.9624 16.8305L57.0418 16.9943L57.1201 17.158L57.1973 17.3227L57.2746 17.4885L57.3499 17.6543L57.4241 17.82L57.4984 17.9878L57.5706 18.1546L57.6428 18.3224L57.7831 18.66L57.9194 18.9997L58.0516 19.3414L58.1797 19.6851L58.3038 20.0309L58.4238 20.3787L58.4818 20.5526L58.5397 20.7275L58.6516 21.0793L58.7055 21.2553L58.8113 21.6092L58.8621 21.7871L58.9119 21.9651L58.9607 22.1441L59.0085 22.3231L59.0553 22.5031L59.1011 22.6831L59.1458 22.8631L59.1896 23.0441L59.2323 23.2251L59.3136 23.5892L59.3523 23.7712L59.3909 23.9543L59.4275 24.1373L59.4631 24.3214L59.4977 24.5054L59.5313 24.6895L59.5638 24.8746L59.5953 25.0597L59.6258 25.2458L59.6828 25.618L59.7092 25.8041L59.7346 25.9912L59.759 26.1793L59.7824 26.3675L59.8048 26.5556L59.8455 26.9329L59.8638 27.1221L59.8811 27.3112L59.8974 27.5014L59.9126 27.6916L59.9268 27.8827L59.939 28.0739L59.9614 28.4563L59.9706 28.6485L59.9848 29.0329L59.995 29.4194L59.998 29.6126L60.0001 30L59.998 30.3875L59.995 30.5807L59.9848 30.9671L59.9706 31.3516L59.9614 31.5438L59.939 31.9261L59.9268 32.1173L59.9126 32.3085L59.8974 32.4987L59.8811 32.6888L59.8638 32.878L59.8455 33.0672L59.8048 33.4444L59.7824 33.6326L59.759 33.8207L59.7346 34.0088L59.7092 34.196L59.6828 34.3821L59.6258 34.7543L59.5953 34.9404L59.5638 35.1255L59.5313 35.3105L59.4977 35.4946L59.4631 35.6787L59.4275 35.8627L59.3909 36.0458L59.3523 36.2288L59.3136 36.4109L59.2323 36.7749L59.1896 36.956L59.1458 37.137L59.1011 37.317L59.0553 37.497L59.0085 37.677L58.9607 37.856L58.9119 38.035L58.8621 38.2129L58.8113 38.3909L58.7055 38.7448L58.6516 38.9207L58.5397 39.2726L58.4818 39.4475L58.4238 39.6214L58.3038 39.9692L58.1797 40.315L58.0516 40.6587L57.9194 41.0004L57.7831 41.34L57.6428 41.6777L57.5706 41.8455L57.4984 42.0122L57.4241 42.18L57.3499 42.3458L57.2746 42.5116L57.1973 42.6773L57.1201 42.8421L57.0418 43.0058L56.9624 43.1695L56.8821 43.3333L56.8007 43.495L56.7184 43.6577L56.635 43.8183L56.5506 43.98L56.4651 44.1397L56.2923 44.459L56.2038 44.6177L56.1153 44.7753L56.0258 44.9329L55.9343 45.0895L55.8428 45.2451L55.7502 45.4007L55.6567 45.5563L55.5621 45.7099L55.4675 45.8644L55.3709 46.017L55.2733 46.1695L55.1757 46.3211L55.077 46.4726L54.9773 46.6231L54.8767 46.7736L54.775 46.9221L54.6723 47.0716L54.5695 47.219L54.4648 47.3665L54.3601 47.5129L54.2543 47.6594L54.1475 47.8048L53.9319 48.0936L53.8221 48.237L53.7123 48.3794L53.6014 48.5217L53.4895 48.6631L53.2638 48.9438L53.1499 49.0831L53.034 49.2214L52.8021 49.496L52.5662 49.7685L52.4472 49.9038L52.3272 50.038L52.0851 50.3045L51.8401 50.5678L51.716 50.698L51.5909 50.8282L51.4658 50.9573L51.2136 51.2136L50.9573 51.4658L50.8282 51.5909L50.698 51.716L50.5678 51.8401L50.3045 52.0851L50.038 52.3272L49.9038 52.4472L49.7685 52.5662L49.496 52.8021L49.2214 53.034L49.0831 53.1499L48.9438 53.2638L48.6631 53.4895L48.5217 53.6014L48.3794 53.7123L48.237 53.8221L48.0936 53.9319L47.8048 54.1475L47.6594 54.2543L47.5129 54.3601L47.3665 54.4648L47.219 54.5695L47.0716 54.6723L46.9221 54.775L46.7736 54.8767L46.6231 54.9773L46.4726 55.077L46.3211 55.1756L46.1695 55.2733L46.017 55.3709L45.8645 55.4675L45.7099 55.5621L45.5563 55.6567L45.4007 55.7502L45.2451 55.8428L45.0895 55.9343L44.9329 56.0258L44.7753 56.1153L44.6177 56.2038L44.459 56.2923L44.1397 56.4651L43.98 56.5506L43.8184 56.635L43.6577 56.7184L43.495 56.8007L43.3333 56.8821L43.1695 56.9624L43.0058 57.0418L42.8421 57.1201L42.6773 57.1973L42.5116 57.2746L42.3458 57.3499L42.18 57.4241L42.0122 57.4984L41.8455 57.5706L41.6777 57.6428L41.34 57.7831L41.0004 57.9194L40.6587 58.0516L40.315 58.1797L39.9692 58.3038L39.6214 58.4238L39.4475 58.4818L39.2726 58.5397L38.9207 58.6516L38.7448 58.7055L38.3909 58.8112L38.2129 58.8621L38.035 58.9119L37.856 58.9607L37.677 59.0085L37.497 59.0553L37.317 59.1011L37.137 59.1458L36.956 59.1895L36.775 59.2323L36.4109 59.3136L36.2289 59.3523L36.0458 59.3909L35.8628 59.4275L35.6787 59.4631L35.4946 59.4977L35.3105 59.5312L35.1255 59.5638L34.9404 59.5953L34.7543 59.6258L34.3821 59.6828L34.196 59.7092L34.0089 59.7346L33.8207 59.759L33.6326 59.7824L33.4444 59.8048L33.0672 59.8455L32.878 59.8638L32.6889 59.8811L32.4987 59.8973L32.3085 59.9126L32.1173 59.9268L31.9261 59.939L31.5438 59.9614L31.3516 59.9706L30.9672 59.9848L30.5807 59.995L30.3875 59.998L30 60.0001L29.6126 59.998L29.4194 59.995L29.0329 59.9848L28.6485 59.9706L28.4563 59.9614L28.0739 59.939L27.8827 59.9268L27.6916 59.9126L27.5014 59.8973L27.3112 59.8811L27.1221 59.8638L26.9329 59.8455L26.5556 59.8048L26.3675 59.7824L26.1793 59.759L25.9912 59.7346L25.8041 59.7092L25.618 59.6828L25.2458 59.6258L25.0597 59.5953L24.8746 59.5638L24.6895 59.5312L24.5055 59.4977L24.3214 59.4631L24.1373 59.4275L23.9543 59.3909L23.7712 59.3523L23.5892 59.3136L23.2251 59.2323L23.0441 59.1895L22.8631 59.1458L22.6831 59.1011L22.5031 59.0553L22.3231 59.0085L22.1441 58.9607L21.9651 58.9119L21.7871 58.8621L21.6092 58.8112L21.2553 58.7055L21.0793 58.6516L20.7275 58.5397L20.5526 58.4818L20.3787 58.4238L20.0309 58.3038L19.6851 58.1797L19.3414 58.0516L18.9997 57.9194L18.66 57.7831L18.3224 57.6428L18.1546 57.5706L17.9878 57.4984L17.82 57.4241L17.6543 57.3499L17.4885 57.2746L17.3227 57.1973L17.158 57.1201L16.9943 57.0418L16.8305 56.9624L16.6668 56.8821L16.5051 56.8007L16.3424 56.7184L16.1817 56.635L16.02 56.5506L15.8604 56.4651L15.541 56.2923L15.3824 56.2038L15.2248 56.1153L15.0671 56.0258L14.9105 55.9343L14.7549 55.8428L14.5993 55.7502L14.4437 55.6567L14.2902 55.5621L14.1356 55.4675L13.9831 55.3709L13.8305 55.2733L13.679 55.1756L13.5275 55.077L13.377 54.9773L13.2265 54.8767L13.078 54.775L12.9285 54.6723L12.781 54.5695L12.6336 54.4648L12.4871 54.3601L12.3407 54.2543L12.1953 54.1475L11.9065 53.9319L11.7631 53.8221L11.6207 53.7123L11.4783 53.6014L11.337 53.4895L11.0563 53.2638L10.917 53.1499L10.7787 53.034L10.5041 52.8021L10.2315 52.5662L10.0963 52.4472L9.96204 52.3272L9.6956 52.0851L9.43221 51.8401L9.30204 51.716L9.17187 51.5909L9.04272 51.4658L8.91459 51.3397L8.78747 51.2136L8.66035 51.0855L8.53425 50.9573L8.40916 50.8282L8.28408 50.698L8.16001 50.5678L7.91492 50.3045L7.67289 50.038L7.55289 49.9038L7.43391 49.7685L7.19797 49.496L6.96611 49.2214L6.85018 49.0831L6.73628 48.9438L6.51052 48.6631L6.39865 48.5217L6.2878 48.3794L6.17797 48.237L6.06814 48.0936L5.85255 47.8048L5.74577 47.6594L5.64001 47.5129L5.53526 47.3665L5.43051 47.219L5.3278 47.0716L5.22509 46.9221L5.1234 46.7736L5.02272 46.6231L4.92306 46.4726L4.82441 46.3211L4.72678 46.1695L4.62916 46.017L4.53255 45.8644L4.43797 45.7099L4.34339 45.5563L4.24984 45.4007L4.15729 45.2451L4.06577 45.0895L3.97424 44.9329L3.88475 44.7753L3.79628 44.6177L3.7078 44.459L3.53492 44.1397L3.4495 43.98L3.36509 43.8183L3.2817 43.6577L3.19933 43.495L3.11797 43.3333L3.03763 43.1695L2.95831 43.0058L2.88 42.8421L2.80272 42.6773L2.72543 42.5116L2.65017 42.3458L2.57594 42.18L2.5017 42.0122L2.42949 41.8455L2.35729 41.6777L2.21695 41.34L2.08068 41.0004L1.94848 40.6587L1.82034 40.315L1.69627 39.9692L1.57627 39.6214L1.51831 39.4475L1.46034 39.2726L1.34848 38.9207L1.29458 38.7448L1.18881 38.3909L1.13797 38.2129L1.08814 38.035L1.03932 37.856L0.991527 37.677L0.944747 37.497L0.898984 37.317L0.854238 37.137L0.810509 36.956L0.767797 36.7749L0.686441 36.4109L0.647797 36.2288L0.609153 36.0458L0.572543 35.8627L0.53695 35.6787L0.502373 35.4946L0.468814 35.3105L0.436272 35.1255L0.404746 34.9404L0.374238 34.7543L0.317288 34.3821L0.290848 34.196L0.265424 34.0088L0.241017 33.8207L0.217627 33.6326L0.195254 33.4444L0.154576 33.0672L0.136271 32.878L0.118983 32.6888L0.102712 32.4987L0.0874577 32.3085L0.0732204 32.1173L0.061017 31.9261L0.0386441 31.5438L0.0294916 31.3516L0.0152542 30.9671L0.00508475 30.5807L0.00203387 30.3875L0 30L0.00203387 29.6126L0.00508475 29.4194L0.0152542 29.0329L0.0294916 28.6485L0.0386441 28.4563L0.061017 28.0739L0.0732204 27.8827L0.0874577 27.6916L0.102712 27.5014L0.118983 27.3112L0.136271 27.1221L0.154576 26.9329L0.195254 26.5556L0.217627 26.3675L0.241017 26.1793L0.265424 25.9912L0.290848 25.8041L0.317288 25.618L0.374238 25.2458L0.404746 25.0597L0.436272 24.8746L0.468814 24.6895L0.502373 24.5054L0.53695 24.3214L0.572543 24.1373L0.609153 23.9543L0.647797 23.7712L0.686441 23.5892L0.767797 23.2251L0.810509 23.0441L0.854238 22.8631L0.898984 22.6831L0.944747 22.5031L0.991527 22.3231L1.03932 22.1441L1.08814 21.9651L1.13797 21.7871L1.18881 21.6092L1.29458 21.2553L1.34848 21.0793L1.46034 20.7275L1.51831 20.5526L1.57627 20.3787L1.69627 20.0309L1.82034 19.6851L1.94848 19.3414L2.08068 18.9997L2.21695 18.66L2.35729 18.3224L2.42949 18.1546L2.5017 17.9878L2.57594 17.82L2.65017 17.6543L2.72543 17.4885L2.80272 17.3227L2.88 17.158L2.95831 16.9943L3.03763 16.8305L3.11797 16.6668L3.19933 16.5051L3.2817 16.3424L3.36509 16.1817L3.4495 16.02L3.53492 15.8604L3.7078 15.541L3.79628 15.3824L3.88475 15.2248L3.97424 15.0671L4.06577 14.9105L4.15729 14.7549L4.24984 14.5993L4.34339 14.4437L4.43797 14.2902L4.53255 14.1356L4.62916 13.9831L4.72678 13.8305L4.82441 13.679L4.92306 13.5275L5.02272 13.377L5.1234 13.2265L5.22509 13.078L5.3278 12.9285L5.43051 12.781L5.53526 12.6336L5.64001 12.4871L5.74577 12.3407L5.85255 12.1953L6.06814 11.9065L6.17797 11.7631L6.2878 11.6207L6.39865 11.4783L6.51052 11.337L6.73628 11.0563L6.85018 10.917L6.96611 10.7787L7.19797 10.5041L7.43391 10.2315L7.55289 10.0963L7.67289 9.96204L7.91492 9.6956L8.16001 9.43221L8.28408 9.30204L8.40916 9.17187L8.53425 9.04272L8.66035 8.91458L8.91459 8.66035L9.04272 8.53425L9.17187 8.40916L9.30204 8.28408L9.43221 8.16001L9.6956 7.91492L9.96204 7.67289L10.0963 7.55289L10.2315 7.43391L10.5041 7.19797L10.7787 6.96611L10.917 6.85018L11.0563 6.73628L11.337 6.51051L11.4783 6.39865L11.6207 6.2878L11.7631 6.17797L11.9065 6.06814L12.1953 5.85255L12.3407 5.74577L12.4871 5.64001L12.6336 5.53526L12.781 5.43051L12.9285 5.3278L13.078 5.22509L13.2265 5.12339L13.377 5.02272L13.5275 4.92306L13.679 4.82441L13.8305 4.72678L13.9831 4.62916L14.1356 4.53255L14.2902 4.43797L14.4437 4.34339L14.5993 4.24983L14.7549 4.15729L14.9105 4.06577L15.0671 3.97424L15.2248 3.88475L15.3824 3.79627L15.541 3.7078L15.8604 3.53492L16.02 3.4495L16.1817 3.36509L16.3424 3.2817L16.5051 3.19933L16.6668 3.11797L16.8305 3.03763L16.9943 2.95831L17.158 2.88L17.3227 2.80271L17.4885 2.72543L17.6543 2.65017L17.82 2.57593L17.9878 2.5017L18.1546 2.42949L18.3224 2.35729L18.66 2.21695L18.9997 2.08068L19.3414 1.94848L19.6851 1.82034L20.0309 1.69627L20.3787 1.57627L20.5526 1.51831L20.7275 1.46034L21.0793 1.34848L21.2553 1.29458L21.6092 1.18881L21.7871 1.13797L21.9651 1.08814L22.1441 1.03932L22.3231 0.991526L22.5031 0.944747L22.6831 0.898984L22.8631 0.854238L23.0441 0.810509L23.2251 0.767797L23.5892 0.686441L23.7712 0.647797L23.9543 0.609153L24.1373 0.572543L24.3214 0.53695L24.5055 0.502373L24.6895 0.468814L24.8746 0.436272L25.0597 0.404746L25.2458 0.374238L25.618 0.317288L25.8041 0.290848L25.9912 0.265424L26.1793 0.241017L26.3675 0.217627L26.5556 0.195254L26.9329 0.154576L27.1221 0.136271L27.3112 0.118983L27.5014 0.102712L27.6916 0.0874577L27.8827 0.0732204L28.0739 0.061017L28.4563 0.0386441L28.6485 0.0294916L29.0329 0.0152542L29.4194 0.00508475L29.6126 0.00203387L30 0L30.3875 0.00203387ZM29.638 2.03593L29.458 2.03899L29.277 2.04305L29.097 2.04814L28.918 2.05424L28.738 2.06136L28.38 2.07966L28.2021 2.09085L27.8461 2.11526L27.6692 2.12949L27.4912 2.14475L27.3143 2.16102L27.1383 2.17831L26.9624 2.19661L26.7865 2.21593L26.4356 2.25865L26.2607 2.28102L25.9119 2.32983L25.739 2.35627L25.3922 2.41119L25.2193 2.44068L24.8756 2.5017L24.7038 2.53424L24.5329 2.5678L24.3621 2.60238L24.1912 2.63797L24.0214 2.67356L23.8516 2.71119L23.6827 2.74983L23.5139 2.78949L23.3451 2.83017L23.1773 2.87187L23.0095 2.91458L22.8427 2.95831L22.6749 3.00204L22.5092 3.0478L22.3434 3.09458L22.1777 3.14238L22.0119 3.19119L21.8471 3.24L21.6834 3.29085L21.356 3.39458L21.1932 3.44848L20.8678 3.55831L20.7061 3.61424L20.3848 3.73017L20.2241 3.78916L19.9048 3.91119L19.7461 3.97322L19.5875 4.03627L19.4299 4.10034L19.2722 4.16543L19.1156 4.23051L18.959 4.29763L18.8024 4.36577L18.6468 4.4339L18.4922 4.50306L18.1831 4.64543L18.0295 4.71763L17.877 4.79085L17.5719 4.93933L17.4204 5.0156L17.2698 5.09187L17.1193 5.17017L16.9698 5.24848L16.8204 5.3278L16.6709 5.40814L16.5234 5.4895L16.3749 5.57085L16.2285 5.65424L16.081 5.73763L15.9356 5.82204L15.7902 5.90848L15.6448 5.9939L15.5004 6.08136L15.3559 6.16984L15.2136 6.25831L15.0702 6.3478L14.9278 6.43831L14.7865 6.52984L14.5058 6.71492L14.3654 6.80848L14.2261 6.90407L14.0878 6.99865L13.9495 7.09526L13.8122 7.19289L13.6759 7.29052L13.5397 7.38916L13.4034 7.48882L13.2692 7.58848L13.0007 7.79187L12.8675 7.89458L12.6031 8.10204L12.4719 8.20679L12.3417 8.31255L12.2115 8.41933L12.0824 8.52713L11.9543 8.63492L11.8261 8.74374L11.699 8.85255L11.4468 9.07425L11.3217 9.18611L11.1966 9.29899L11.0726 9.41187L10.9495 9.52577L10.8275 9.64069L10.7054 9.75662L10.5844 9.87255L10.4634 9.9895L10.3444 10.1065L10.1065 10.3444L9.9895 10.4634L9.87255 10.5844L9.75662 10.7054L9.64069 10.8275L9.52577 10.9495L9.41187 11.0726L9.29899 11.1966L9.18611 11.3217L9.07425 11.4468L8.85255 11.699L8.74374 11.8261L8.63492 11.9542L8.52713 12.0824L8.41933 12.2115L8.31255 12.3417L8.20679 12.4719L8.10204 12.6031L7.89458 12.8675L7.79187 13.0007L7.58848 13.2692L7.48882 13.4034L7.38916 13.5397L7.29052 13.6759L7.19289 13.8122L7.09526 13.9495L6.99865 14.0878L6.90408 14.2261L6.80848 14.3654L6.71492 14.5058L6.52984 14.7865L6.43831 14.9278L6.3478 15.0702L6.25831 15.2136L6.16984 15.3559L6.08136 15.5004L5.99391 15.6448L5.90848 15.7902L5.82204 15.9356L5.73763 16.081L5.65424 16.2285L5.57085 16.3749L5.4895 16.5234L5.40814 16.6709L5.3278 16.8204L5.24848 16.9698L5.17018 17.1193L5.09187 17.2698L5.0156 17.4204L4.93933 17.5719L4.79085 17.877L4.71763 18.0295L4.64543 18.1831L4.50306 18.4922L4.4339 18.6468L4.36577 18.8024L4.29763 18.959L4.23051 19.1156L4.16543 19.2722L4.10034 19.4298L4.03628 19.5875L3.97322 19.7461L3.91119 19.9048L3.78916 20.2241L3.73017 20.3848L3.61424 20.7061L3.55831 20.8678L3.44848 21.1932L3.39458 21.356L3.29085 21.6834L3.24 21.8471L3.19119 22.0119L3.14238 22.1776L3.09458 22.3434L3.0478 22.5092L3.00204 22.6749L2.95831 22.8427L2.91458 23.0095L2.87187 23.1773L2.83017 23.3451L2.78949 23.5139L2.74983 23.6827L2.71119 23.8515L2.67356 24.0214L2.63797 24.1912L2.60238 24.3621L2.5678 24.5329L2.53424 24.7038L2.5017 24.8756L2.44068 25.2193L2.41119 25.3922L2.35627 25.739L2.32983 25.9119L2.28102 26.2607L2.25865 26.4356L2.21593 26.7865L2.19661 26.9624L2.17831 27.1383L2.16102 27.3143L2.14475 27.4912L2.12949 27.6692L2.11526 27.8461L2.09085 28.2021L2.07966 28.38L2.06136 28.738L2.05424 28.918L2.04814 29.097L2.04305 29.277L2.03899 29.458L2.03593 29.638L2.0339 30L2.03593 30.3621L2.03899 30.5421L2.04305 30.7231L2.04814 30.9031L2.05424 31.0821L2.06136 31.2621L2.07966 31.62L2.09085 31.798L2.11526 32.1539L2.12949 32.3309L2.14475 32.5088L2.16102 32.6858L2.17831 32.8617L2.19661 33.0377L2.21593 33.2136L2.25865 33.5644L2.28102 33.7394L2.32983 34.0882L2.35627 34.261L2.41119 34.6078L2.44068 34.7807L2.5017 35.1244L2.53424 35.2963L2.5678 35.4672L2.60238 35.638L2.63797 35.8088L2.67356 35.9787L2.71119 36.1485L2.74983 36.3173L2.78949 36.4861L2.83017 36.6549L2.87187 36.8227L2.91458 36.9905L2.95831 37.1573L3.00204 37.3251L3.0478 37.4909L3.09458 37.6566L3.14238 37.8224L3.19119 37.9882L3.24 38.1529L3.29085 38.3166L3.39458 38.6441L3.50238 38.9695L3.55831 39.1322L3.61424 39.2939L3.73017 39.6153L3.78916 39.776L3.91119 40.0953L3.97322 40.2539L4.03628 40.4126L4.10034 40.5702L4.16543 40.7278L4.23051 40.8844L4.29763 41.0411L4.36577 41.1977L4.4339 41.3533L4.50306 41.5078L4.64543 41.817L4.71763 41.9705L4.79085 42.1231L4.93933 42.4282L5.0156 42.5797L5.09187 42.7302L5.17018 42.8807L5.24848 43.0302L5.3278 43.1797L5.40814 43.3292L5.4895 43.4767L5.57085 43.6251L5.65424 43.7716L5.73763 43.919L5.82204 44.0644L5.90848 44.2099L5.99391 44.3553L6.08136 44.4997L6.16984 44.6441L6.25831 44.7865L6.3478 44.9299L6.43831 45.0722L6.52984 45.2136L6.71492 45.4943L6.80848 45.6346L6.90408 45.7739L6.99865 45.9122L7.09526 46.0506L7.19289 46.1878L7.29052 46.3241L7.38916 46.4604L7.48882 46.5967L7.58848 46.7309L7.79187 46.9994L7.89458 47.1326L8.10204 47.397L8.20679 47.5282L8.31255 47.6583L8.41933 47.7885L8.52713 47.9177L8.63492 48.0458L8.74374 48.1739L8.85255 48.3011L9.07425 48.5533L9.18611 48.6784L9.29899 48.8034L9.41187 48.9275L9.52577 49.0506L9.64069 49.1726L9.75662 49.2946L9.87255 49.4156L9.9895 49.5367L10.1065 49.6556L10.3444 49.8936L10.4634 50.0106L10.5844 50.1275L10.7054 50.2434L10.8275 50.3594L10.9495 50.4743L11.0726 50.5882L11.1966 50.7011L11.3217 50.8139L11.4468 50.9258L11.5729 51.0367L11.699 51.1465L11.8261 51.2563L11.9543 51.3651L12.0824 51.4729L12.2115 51.5807L12.3417 51.6875L12.4719 51.7933L12.6031 51.898L12.8675 52.1055L13.0007 52.2082L13.2692 52.4116L13.4034 52.5112L13.5397 52.6109L13.6759 52.7095L13.8122 52.8072L13.9495 52.9048L14.0878 53.0014L14.2261 53.096L14.3654 53.1916L14.5058 53.2851L14.7865 53.4702L14.9278 53.5617L15.0702 53.6523L15.2136 53.7417L15.3559 53.8302L15.5004 53.9187L15.6448 54.0062L15.7902 54.0916L15.9356 54.178L16.081 54.2624L16.2285 54.3458L16.3749 54.4292L16.5234 54.5106L16.6709 54.5919L16.8204 54.6723L16.9698 54.7516L17.1193 54.8299L17.2698 54.9082L17.4204 54.9845L17.5719 55.0607L17.877 55.2092L18.0295 55.2824L18.1831 55.3546L18.4922 55.497L18.6468 55.5662L18.8024 55.6343L18.959 55.7024L19.1156 55.7695L19.2722 55.8346L19.4299 55.8997L19.5875 55.9638L19.7461 56.0268L19.9048 56.0889L20.2241 56.2109L20.3848 56.2699L20.7061 56.3858L20.8678 56.4417L21.1932 56.5516L21.356 56.6055L21.6834 56.7092L21.8471 56.7601L22.0119 56.8089L22.1777 56.8577L22.3434 56.9055L22.5092 56.9523L22.6749 56.998L22.8427 57.0418L23.0095 57.0855L23.1773 57.1282L23.3451 57.1699L23.5139 57.2106L23.6827 57.2502L23.8516 57.2889L24.0214 57.3265L24.1912 57.3621L24.3621 57.3977L24.5329 57.4323L24.7038 57.4658L24.8756 57.4984L25.2193 57.5594L25.3922 57.5889L25.739 57.6438L25.9119 57.6702L26.2607 57.719L26.4356 57.7414L26.7865 57.7841L26.9624 57.8034L27.1383 57.8218L27.3143 57.839L27.4912 57.8553L27.6692 57.8706L27.8461 57.8848L28.2021 57.9092L28.38 57.9204L28.738 57.9387L28.918 57.9458L29.097 57.9519L29.277 57.957L29.458 57.9611L29.638 57.9641L30 57.9662L30.3621 57.9641L30.5421 57.9611L30.7231 57.957L30.9031 57.9519L31.0821 57.9458L31.2621 57.9387L31.62 57.9204L31.798 57.9092L32.1539 57.8848L32.3309 57.8706L32.5088 57.8553L32.6858 57.839L32.8617 57.8218L33.0377 57.8034L33.2136 57.7841L33.5644 57.7414L33.7394 57.719L34.0882 57.6702L34.2611 57.6438L34.6078 57.5889L34.7807 57.5594L35.1244 57.4984L35.2963 57.4658L35.4672 57.4323L35.638 57.3977L35.8089 57.3621L35.9787 57.3265L36.1485 57.2889L36.3173 57.2502L36.4861 57.2106L36.655 57.1699L36.8228 57.1282L36.9905 57.0855L37.1573 57.0418L37.3251 56.998L37.4909 56.9523L37.6567 56.9055L37.8224 56.8577L37.9882 56.8089L38.1529 56.7601L38.3167 56.7092L38.6441 56.6055L38.8068 56.5516L39.1322 56.4417L39.2939 56.3858L39.6153 56.2699L39.776 56.2109L40.0953 56.0889L40.2539 56.0268L40.4126 55.9638L40.5702 55.8997L40.7278 55.8346L40.8845 55.7695L41.0411 55.7024L41.1977 55.6343L41.3533 55.5662L41.5078 55.497L41.817 55.3546L41.9706 55.2824L42.1231 55.2092L42.4282 55.0607L42.5797 54.9845L42.7302 54.9082L42.8807 54.8299L43.0302 54.7516L43.1797 54.6723L43.3292 54.5919L43.4767 54.5106L43.6251 54.4292L43.7716 54.3458L43.919 54.2624L44.0645 54.178L44.2099 54.0916L44.3553 54.0062L44.4997 53.9187L44.6441 53.8302L44.7865 53.7417L44.9299 53.6523L45.0723 53.5617L45.2136 53.4702L45.4943 53.2851L45.6346 53.1916L45.7739 53.096L45.9123 53.0014L46.0506 52.9048L46.1878 52.8072L46.3241 52.7095L46.4604 52.6109L46.5967 52.5112L46.7309 52.4116L46.9994 52.2082L47.1326 52.1055L47.397 51.898L47.5282 51.7933L47.6584 51.6875L47.7885 51.5807L47.9177 51.4729L48.0458 51.3651L48.174 51.2563L48.3011 51.1465L48.4272 51.0367L48.5533 50.9258L48.6784 50.8139L48.8034 50.7011L48.9275 50.5882L49.0506 50.4743L49.1726 50.3594L49.2946 50.2434L49.4156 50.1275L49.5367 50.0106L49.6556 49.8936L49.8936 49.6556L50.0106 49.5367L50.1275 49.4156L50.2434 49.2946L50.3594 49.1726L50.4743 49.0506L50.5882 48.9275L50.7011 48.8034L50.814 48.6784L50.9258 48.5533L51.0367 48.4272L51.1465 48.3011L51.2563 48.1739L51.3651 48.0458L51.4729 47.9177L51.5807 47.7885L51.6875 47.6583L51.7933 47.5282L51.898 47.397L52.1055 47.1326L52.2082 46.9994L52.4116 46.7309L52.5112 46.5967L52.6109 46.4604L52.7095 46.3241L52.8072 46.1878L52.9048 46.0506L53.0014 45.9122L53.096 45.7739L53.1916 45.6346L53.2851 45.4943L53.4702 45.2136L53.5618 45.0722L53.6523 44.9299L53.7418 44.7865L53.8302 44.6441L53.9187 44.4997L54.0062 44.3553L54.0916 44.2099L54.178 44.0644L54.2624 43.919L54.3458 43.7716L54.4292 43.6251L54.5106 43.4767L54.5919 43.3292L54.6723 43.1797L54.7516 43.0302L54.8299 42.8807L54.9082 42.7302L54.9845 42.5797L55.0607 42.4282L55.2092 42.1231L55.2824 41.9705L55.3546 41.817L55.497 41.5078L55.5662 41.3533L55.6343 41.1977L55.7024 41.0411L55.7696 40.8844L55.8346 40.7278L55.8997 40.5702L55.9638 40.4126L56.0268 40.2539L56.0889 40.0953L56.2109 39.776L56.2699 39.6153L56.3858 39.2939L56.4418 39.1322L56.5516 38.8068L56.6055 38.6441L56.7092 38.3166L56.7601 38.1529L56.8089 37.9882L56.8577 37.8224L56.9055 37.6566L56.9523 37.4909L56.998 37.3251L57.0418 37.1573L57.0855 36.9905L57.1282 36.8227L57.1699 36.6549L57.2106 36.4861L57.2502 36.3173L57.2889 36.1485L57.3265 35.9787L57.3621 35.8088L57.3977 35.638L57.4323 35.4672L57.4658 35.2963L57.4984 35.1244L57.5594 34.7807L57.5889 34.6078L57.6438 34.261L57.6702 34.0882L57.719 33.7394L57.7414 33.5644L57.7841 33.2136L57.8035 33.0377L57.8218 32.8617L57.839 32.6858L57.8553 32.5088L57.8706 32.3309L57.8848 32.1539L57.9092 31.798L57.9204 31.62L57.9387 31.2621L57.9458 31.0821L57.9519 30.9031L57.957 30.7231L57.9611 30.5421L57.9641 30.3621L57.9662 30L57.9641 29.638L57.9611 29.458L57.957 29.277L57.9519 29.097L57.9458 28.918L57.9387 28.738L57.9204 28.38L57.9092 28.2021L57.8848 27.8461L57.8706 27.6692L57.8553 27.4912L57.839 27.3143L57.8218 27.1383L57.8035 26.9624L57.7841 26.7865L57.7414 26.4356L57.719 26.2607L57.6702 25.9119L57.6438 25.739L57.5889 25.3922L57.5594 25.2193L57.4984 24.8756L57.4658 24.7038L57.4323 24.5329L57.3977 24.3621L57.3621 24.1912L57.3265 24.0214L57.2889 23.8515L57.2502 23.6827L57.2106 23.5139L57.1699 23.3451L57.1282 23.1773L57.0855 23.0095L57.0418 22.8427L56.998 22.6749L56.9523 22.5092L56.9055 22.3434L56.8577 22.1776L56.8089 22.0119L56.7601 21.8471L56.7092 21.6834L56.6055 21.356L56.5516 21.1932L56.4418 20.8678L56.3858 20.7061L56.2699 20.3848L56.2109 20.2241L56.0889 19.9048L56.0268 19.7461L55.9638 19.5875L55.8997 19.4298L55.8346 19.2722L55.7696 19.1156L55.7024 18.959L55.6343 18.8024L55.5662 18.6468L55.497 18.4922L55.3546 18.1831L55.2824 18.0295L55.2092 17.877L55.0607 17.5719L54.9845 17.4204L54.9082 17.2698L54.8299 17.1193L54.7516 16.9698L54.6723 16.8204L54.5919 16.6709L54.5106 16.5234L54.4292 16.3749L54.3458 16.2285L54.2624 16.081L54.178 15.9356L54.0916 15.7902L54.0062 15.6448L53.9187 15.5004L53.8302 15.3559L53.7418 15.2136L53.6523 15.0702L53.5618 14.9278L53.4702 14.7865L53.2851 14.5058L53.1916 14.3654L53.096 14.2261L53.0014 14.0878L52.9048 13.9495L52.8072 13.8122L52.7095 13.6759L52.6109 13.5397L52.5112 13.4034L52.4116 13.2692L52.2082 13.0007L52.1055 12.8675L51.898 12.6031L51.7933 12.4719L51.6875 12.3417L51.5807 12.2115L51.4729 12.0824L51.3651 11.9542L51.2563 11.8261L51.1465 11.699L51.0367 11.5729L50.9258 11.4468L50.814 11.3217L50.7011 11.1966L50.5882 11.0726L50.4743 10.9495L50.3594 10.8275L50.2434 10.7054L50.1275 10.5844L50.0106 10.4634L49.8936 10.3444L49.6556 10.1065L49.5367 9.9895L49.4156 9.87255L49.2946 9.75662L49.1726 9.64069L49.0506 9.52577L48.9275 9.41187L48.8034 9.29899L48.6784 9.18611L48.5533 9.07425L48.3011 8.85255L48.174 8.74374L48.0458 8.63492L47.9177 8.52713L47.7885 8.41933L47.6584 8.31255L47.5282 8.20679L47.397 8.10204L47.1326 7.89458L46.9994 7.79187L46.7309 7.58848L46.5967 7.48882L46.4604 7.38916L46.3241 7.29052L46.1878 7.19289L46.0506 7.09526L45.9123 6.99865L45.7739 6.90407L45.6346 6.80848L45.4943 6.71492L45.2136 6.52984L45.0723 6.43831L44.9299 6.3478L44.7865 6.25831L44.6441 6.16984L44.4997 6.08136L44.3553 5.9939L44.2099 5.90848L44.0645 5.82204L43.919 5.73763L43.7716 5.65424L43.6251 5.57085L43.4767 5.4895L43.3292 5.40814L43.1797 5.3278L43.0302 5.24848L42.8807 5.17017L42.7302 5.09187L42.5797 5.0156L42.4282 4.93933L42.1231 4.79085L41.9706 4.71763L41.817 4.64543L41.5078 4.50306L41.3533 4.4339L41.1977 4.36577L41.0411 4.29763L40.8845 4.23051L40.7278 4.16543L40.5702 4.10034L40.4126 4.03627L40.2539 3.97322L40.0953 3.91119L39.776 3.78916L39.6153 3.73017L39.2939 3.61424L39.1322 3.55831L38.9695 3.50238L38.6441 3.39458L38.3167 3.29085L38.1529 3.24L37.9882 3.19119L37.8224 3.14238L37.6567 3.09458L37.4909 3.0478L37.3251 3.00204L37.1573 2.95831L36.9905 2.91458L36.8228 2.87187L36.655 2.83017L36.4861 2.78949L36.3173 2.74983L36.1485 2.71119L35.9787 2.67356L35.8089 2.63797L35.638 2.60238L35.4672 2.5678L35.2963 2.53424L35.1244 2.5017L34.7807 2.44068L34.6078 2.41119L34.2611 2.35627L34.0882 2.32983L33.7394 2.28102L33.5644 2.25865L33.2136 2.21593L33.0377 2.19661L32.8617 2.17831L32.6858 2.16102L32.5088 2.14475L32.3309 2.12949L32.1539 2.11526L31.798 2.09085L31.62 2.07966L31.2621 2.06136L31.0821 2.05424L30.9031 2.04814L30.7231 2.04305L30.5421 2.03899L30.3621 2.03593L30 2.0339L29.638 2.03593Z" fill="#666D89"/>
<path fill-rule="evenodd" clip-rule="evenodd" d="M38 45.999L22 46.001C20.343 46.001 19 44.658 19 43.001V17.001C19 15.343 20.343 14 22 14H38C39.657 14 41 15.342 41 17V43C41 44.657 39.657 45.999 38 45.999ZM39 17C39 16.448 38.552 16 38 16L22 16.001C21.448 16.001 21 16.449 21 17.001V19.001L39 19V17ZM39 20H21V39.997L39 39.996V20ZM39 40.996L21 40.997V43.001C21 43.552 21.448 44.001 22 44.001L38 43.999C38.552 43.999 39 43.551 39 43V40.996ZM30.5 42.996H29.5C29.224 42.996 29 42.772 29 42.496C29 42.219 29.224 41.996 29.5 41.996H30.5C30.776 41.996 31 42.219 31 42.496C31 42.772 30.776 42.996 30.5 42.996ZM28.5 17H31.5C31.776 17 32 17.223 32 17.5C32 17.776 31.776 18 31.5 18H28.5C28.224 18 28 17.776 28 17.5C28 17.223 28.224 17 28.5 17Z" fill="#666D89"/>
</g>
<defs>
<clipPath id="clip0">
<rect width="60" height="60" fill="white"/>
</clipPath>
</defs>
</svg>
