<svg width="458" height="225" viewBox="0 0 458 225" fill="none" xmlns="http://www.w3.org/2000/svg">
<g clip-path="url(#clip0)">
<path fill-rule="evenodd" clip-rule="evenodd" d="M431 224.479C445.902 224.479 458 211.877 458 196.354V27.6042C458 12.0813 445.902 -0.520813 431 -0.520813L27 -0.520813C12.098 -0.520813 0 12.0813 0 27.6042V196.354C0 211.877 12.098 224.479 27 224.479L431 224.479Z" fill="#F2F2F2"/>
<path fill-rule="evenodd" clip-rule="evenodd" d="M419.52 131.773C420.899 131.773 422.018 130.607 422.018 129.171V96.8736C422.018 95.4353 420.899 94.2688 419.52 94.2688C418.14 94.2688 417.02 95.4353 417.02 96.8736V129.171C417.02 130.607 418.14 131.773 419.52 131.773Z" fill="#ACACAC"/>
<path d="M8.37399 112.5C8.37399 124.546 17.7483 134.31 29.312 134.31C40.8757 134.31 50.25 124.546 50.25 112.5C50.25 100.454 40.8757 90.6896 29.312 90.6896C17.7483 90.6896 8.37399 100.454 8.37399 112.5Z" fill="#FAFAFA"/>
<path fill-rule="evenodd" clip-rule="evenodd" d="M37.5867 116.887L37.5824 116.998L37.5758 117.106L37.5671 117.214L37.5551 117.322L37.5409 117.428L37.5245 117.534L37.5048 117.638L37.483 117.743L37.4589 117.845L37.4327 117.948L37.4032 118.049L37.3727 118.148L37.3388 118.247L37.3028 118.345L37.2656 118.442L37.2252 118.537L37.1826 118.63L37.1389 118.724L37.0919 118.815L37.0439 118.906L36.9936 118.994L36.9412 119.082L36.8866 119.167L36.8298 119.253L36.7719 119.336L36.7118 119.418L36.6495 119.497L36.5862 119.576L36.5207 119.652L36.454 119.727L36.3852 119.801L36.3142 119.873L36.2421 119.942L36.1689 120.011L36.0936 120.078L36.016 120.141L35.9385 120.204L35.8587 120.264L35.7768 120.323L35.6949 120.38L35.6108 120.435L35.5256 120.487L35.4382 120.537L35.3508 120.586L35.2612 120.632L35.1717 120.676L35.0799 120.718L34.9871 120.758L34.8931 120.795L34.7981 120.83L34.702 120.862L34.6059 120.892L34.5076 120.92L34.4093 120.945L34.3088 120.967L34.2083 120.988L34.1067 121.005L34.0051 121.02L33.9014 121.032L33.7976 121.041L33.6927 121.049L33.5879 121.053L33.4819 121.054H25.2701L25.1641 121.053L25.0582 121.049L24.9544 121.041L24.8496 121.032L24.7469 121.02L24.6442 121.005L24.5437 120.988L24.4421 120.967L24.3427 120.945L24.2444 120.92L24.1461 120.892L24.0489 120.862L23.9528 120.83L23.8588 120.795L23.7649 120.758L23.6721 120.718L23.5803 120.676L23.4896 120.632L23.4012 120.586L23.3127 120.537L23.2264 120.487L23.1412 120.435L23.0571 120.38L22.9741 120.323L22.8933 120.264L22.8135 120.204L22.7349 120.141L22.6584 120.078L22.5831 120.011L22.5099 119.942L22.4378 119.873L22.3668 119.801L22.298 119.727L22.2302 119.652L22.1658 119.576L22.1013 119.497L22.0402 119.418L21.9801 119.336L21.9211 119.253L21.8654 119.167L21.8108 119.082L21.7584 118.994L21.7081 118.906L21.659 118.815L21.6131 118.724L21.5683 118.63L21.5268 118.537L21.4864 118.442L21.4482 118.345L21.4132 118.247L21.3794 118.148L21.3488 118.049L21.3193 117.948L21.2931 117.845L21.269 117.743L21.2472 117.638L21.2275 117.534L21.2111 117.428L21.1969 117.322L21.1849 117.214L21.1751 117.106L21.1685 116.998L21.1653 116.887L21.1631 116.777V108.223L21.1653 108.113L21.1685 108.002L21.1751 107.894L21.1849 107.786L21.1969 107.678L21.2111 107.572L21.2275 107.466L21.2472 107.362L21.269 107.257L21.2931 107.155L21.3193 107.052L21.3488 106.951L21.3794 106.852L21.4132 106.753L21.4482 106.655L21.4864 106.558L21.5268 106.463L21.5683 106.369L21.6131 106.276L21.659 106.185L21.7081 106.094L21.7584 106.005L21.8108 105.918L21.8654 105.832L21.9211 105.747L21.9801 105.664L22.0402 105.582L22.1013 105.502L22.1658 105.424L22.2302 105.348L22.298 105.273L22.3668 105.199L22.4378 105.127L22.5099 105.058L22.5831 104.989L22.6584 104.922L22.7349 104.858L22.8135 104.796L22.8933 104.734L22.9741 104.676L23.0571 104.619L23.1412 104.565L23.2264 104.513L23.3127 104.462L23.4012 104.414L23.4896 104.367L23.5803 104.324L23.6721 104.282L23.7649 104.242L23.8588 104.205L23.9528 104.17L24.0489 104.138L24.1461 104.107L24.2444 104.08L24.3427 104.055L24.4421 104.032L24.5437 104.012L24.6442 103.995L24.7469 103.98L24.8496 103.968L24.9544 103.958L25.0582 103.95L25.1641 103.947L25.2701 103.946H33.4819L33.5879 103.947L33.6927 103.95L33.7976 103.958L33.9014 103.968L34.0051 103.98L34.1067 103.995L34.2083 104.012L34.3088 104.032L34.4093 104.055L34.5076 104.08L34.6059 104.107L34.702 104.138L34.7981 104.17L34.8931 104.205L34.9871 104.242L35.0799 104.282L35.1717 104.324L35.2612 104.367L35.3508 104.414L35.4382 104.462L35.5256 104.513L35.6108 104.565L35.6949 104.619L35.7768 104.676L35.8587 104.734L35.9385 104.796L36.016 104.858L36.0936 104.922L36.1689 104.989L36.2421 105.058L36.3142 105.127L36.3852 105.199L36.454 105.273L36.5207 105.348L36.5862 105.424L36.6495 105.502L36.7118 105.582L36.7719 105.664L36.8298 105.747L36.8866 105.832L36.9412 105.918L36.9936 106.005L37.0439 106.094L37.0919 106.185L37.1389 106.276L37.1826 106.369L37.2252 106.463L37.2656 106.558L37.3028 106.655L37.3388 106.753L37.3727 106.852L37.4032 106.951L37.4327 107.052L37.4589 107.155L37.483 107.257L37.5048 107.362L37.5245 107.466L37.5409 107.572L37.5551 107.678L37.5671 107.786L37.5758 107.894L37.5824 108.002L37.5867 108.113L37.5878 108.223V116.777L37.5867 116.887ZM35.6993 108.235L35.6982 108.163L35.696 108.102L35.6927 108.043L35.6873 107.985L35.6807 107.927L35.6731 107.869L35.6643 107.812L35.6545 107.756L35.6425 107.701L35.6294 107.645L35.6152 107.59L35.5999 107.537L35.5835 107.482L35.5649 107.43L35.5464 107.378L35.5256 107.325L35.5038 107.274L35.4819 107.224L35.4579 107.174L35.4328 107.124L35.4065 107.076L35.3792 107.028L35.3508 106.98L35.3213 106.934L35.2907 106.888L35.2591 106.843L35.2263 106.798L35.1935 106.755L35.1586 106.713L35.1225 106.671L35.0865 106.63L35.0493 106.59L35.0111 106.551L34.9718 106.513L34.9314 106.476L34.891 106.44L34.8495 106.405L34.8069 106.372L34.7632 106.339L34.7195 106.307L34.6747 106.276L34.6288 106.247L34.5829 106.218L34.536 106.191L34.489 106.165L34.4409 106.14L34.3929 106.117L34.3437 106.094L34.2935 106.072L34.2432 106.053L34.1919 106.034L34.1406 106.017L34.0892 106.001L34.0368 105.986L33.9833 105.972L33.9298 105.96L33.8762 105.95L33.8216 105.939L33.7659 105.931L33.7102 105.926L33.6545 105.92L33.5977 105.917L33.5398 105.914L33.4699 105.913H25.2821L25.2111 105.914L25.1543 105.917L25.0975 105.92L25.0407 105.926L24.985 105.931L24.9304 105.939L24.8758 105.95L24.8212 105.96L24.7676 105.972L24.7152 105.986L24.6628 106.001L24.6103 106.017L24.559 106.034L24.5088 106.053L24.4585 106.072L24.4083 106.094L24.3591 106.117L24.3111 106.14L24.263 106.165L24.2149 106.191L24.1679 106.218L24.1221 106.247L24.0773 106.276L24.0325 106.307L23.9888 106.339L23.9451 106.372L23.9025 106.405L23.861 106.44L23.8195 106.476L23.7802 106.513L23.7409 106.551L23.7026 106.59L23.6655 106.63L23.6284 106.671L23.5934 106.713L23.5585 106.755L23.5246 106.798L23.4929 106.843L23.4602 106.888L23.4296 106.934L23.4012 106.98L23.3728 107.027L23.3455 107.076L23.3193 107.124L23.2941 107.174L23.2701 107.224L23.2472 107.274L23.2264 107.325L23.2057 107.378L23.186 107.43L23.1685 107.482L23.1521 107.536L23.1368 107.59L23.1226 107.645L23.1095 107.701L23.0975 107.756L23.0877 107.812L23.0779 107.869L23.0702 107.927L23.0637 107.985L23.0593 108.043L23.056 108.102L23.0538 108.163L23.0527 108.235V116.764L23.0538 116.837L23.056 116.898L23.0593 116.957L23.0637 117.015L23.0702 117.073L23.0779 117.131L23.0877 117.188L23.0975 117.243L23.1095 117.299L23.1226 117.355L23.1368 117.41L23.1521 117.464L23.1685 117.518L23.186 117.57L23.2057 117.622L23.2264 117.675L23.2472 117.726L23.2701 117.776L23.2941 117.826L23.3193 117.876L23.3455 117.924L23.3728 117.973L23.4012 118.019L23.4307 118.066L23.4602 118.112L23.4929 118.157L23.5246 118.201L23.5585 118.245L23.5923 118.287L23.6284 118.329L23.6655 118.37L23.7026 118.41L23.7409 118.448L23.7802 118.487L23.8195 118.523L23.861 118.56L23.9025 118.595L23.9451 118.628L23.9877 118.661L24.0325 118.693L24.0773 118.724L24.1221 118.753L24.1679 118.782L24.2149 118.809L24.263 118.835L24.3111 118.86L24.3591 118.883L24.4083 118.906L24.4585 118.927L24.5088 118.947L24.559 118.966L24.6103 118.983L24.6628 118.999L24.7152 119.014L24.7676 119.027L24.8212 119.04L24.8758 119.05L24.9304 119.06L24.985 119.068L25.0407 119.074L25.0975 119.08L25.1543 119.083L25.2122 119.086L25.2821 119.087H33.4699L33.5398 119.086L33.5977 119.083L33.6545 119.08L33.7102 119.074L33.7659 119.068L33.8216 119.06L33.8762 119.05L33.9298 119.04L33.9833 119.027L34.0368 119.014L34.0892 118.999L34.1406 118.983L34.1919 118.966L34.2432 118.947L34.2935 118.927L34.3437 118.906L34.3929 118.883L34.4409 118.86L34.489 118.835L34.536 118.809L34.5829 118.782L34.6288 118.753L34.6747 118.724L34.7195 118.693L34.7632 118.661L34.8069 118.628L34.8495 118.595L34.891 118.56L34.9314 118.523L34.9718 118.487L35.0111 118.448L35.0493 118.41L35.0865 118.37L35.1225 118.329L35.1586 118.287L35.1935 118.245L35.2263 118.201L35.2591 118.157L35.2907 118.112L35.3213 118.066L35.3508 118.019L35.3792 117.972L35.4065 117.924L35.4328 117.876L35.4579 117.826L35.4819 117.776L35.5038 117.726L35.5256 117.675L35.5464 117.622L35.5649 117.57L35.5835 117.518L35.5999 117.463L35.6152 117.41L35.6294 117.355L35.6425 117.299L35.6545 117.243L35.6643 117.188L35.6731 117.131L35.6807 117.073L35.6873 117.015L35.6927 116.957L35.696 116.898L35.6982 116.837L35.6993 116.764V108.235Z" fill="#BABABA"/>
<path d="M432.64 112.5C432.64 115.053 434.627 117.123 437.078 117.123C439.529 117.123 441.516 115.053 441.516 112.5C441.516 109.947 439.529 107.877 437.078 107.877C434.627 107.877 432.64 109.947 432.64 112.5Z" fill="#D8D8D8"/>
<path d="M435.094 112.5C435.094 113.632 435.975 114.55 437.062 114.55C438.149 114.55 439.03 113.632 439.03 112.5C439.03 111.368 438.149 110.45 437.062 110.45C435.975 110.45 435.094 111.368 435.094 112.5Z" fill="#EB5055"/>
<path d="M392.976 210.416V14.5815L59.9759 14.5815V210.416L392.976 210.416Z" fill="#161616"/>
<path fill-rule="evenodd" clip-rule="evenodd" d="M395.747 211.615L395.097 212.624L394.122 213.305L392.976 213.544L59.9759 213.544L58.8278 213.305L57.8527 212.624L57.2033 211.615L56.9741 210.416V14.5815L57.2033 13.3872L57.8527 12.3731L58.8278 11.6971L59.9759 11.4583L392.976 11.4583L394.122 11.6971L395.097 12.3731L395.747 13.3872L395.976 14.5815V210.416L395.747 211.615ZM392.976 14.5815L59.9759 14.5815V210.416L392.976 210.416V14.5815Z" fill="#C7C7C7"/>
</g>
<defs>
<clipPath id="clip0">
<rect width="225" height="458" fill="white" transform="translate(458) rotate(90)"/>
</clipPath>
</defs>
</svg>
