<svg width="32" height="32" viewBox="0 0 32 32" fill="none" xmlns="http://www.w3.org/2000/svg">
<g clip-path="url(#clip0)">
<path d="M20 11.4338H17.7147C17.4446 11.4338 17.1429 11.7793 17.1429 12.2415V13.846H20V16.1327H17.1429V23H14.4456V16.1327H12V13.846H14.4456V12.5C14.4456 10.5699 15.8234 9 17.7147 9H20V11.4338Z" fill="#666D89"/>
<path fill-rule="evenodd" clip-rule="evenodd" d="M16.2068 0.00120338L16.4126 0.00481345L16.6184 0.0108302L16.823 0.0204571L17.0275 0.0324907L17.2309 0.0457277L17.4331 0.0625747L17.6352 0.0818285L17.8362 0.103489L18.0371 0.12876L18.2369 0.155233L18.4355 0.184114L18.634 0.215401L18.8314 0.249096L19.0275 0.2864L19.2237 0.324907L19.4174 0.365821L19.6123 0.409142L19.8049 0.45487L19.9974 0.504208L20.1876 0.553546L20.3789 0.606493L20.5678 0.661848L20.7555 0.719609L20.9433 0.778574L21.1298 0.841149L21.3151 0.904927L21.4992 0.971112L21.6821 1.0397L21.865 1.1107L22.0455 1.1829L22.226 1.25751L22.4041 1.33453L22.5822 1.41395L22.7591 1.49457L22.9348 1.57881L23.1081 1.66425L23.2814 1.75089L23.4535 1.83994L23.6243 1.93139L23.794 2.02525L23.9613 2.12032L24.1286 2.21779L24.2946 2.31767L24.4583 2.41875L24.6219 2.52224L24.7832 2.62693L24.9432 2.73403L25.1021 2.84234L25.2597 2.95305L25.4162 3.06616L25.5702 3.18048L25.7242 3.296L25.8758 3.41393L26.0263 3.53306L26.1755 3.6546L26.3223 3.77855L26.4691 3.9037L26.6135 4.03005L26.7555 4.15761L26.8975 4.28757L27.0371 4.41994L27.1755 4.55351L27.3114 4.68829L27.4462 4.82427L27.5798 4.96266L27.7122 5.10225L27.8421 5.24424L27.9697 5.38624L28.096 5.53064L28.2212 5.67745L28.3451 5.82426L28.4667 5.97348L28.5858 6.1239L28.7037 6.27552L28.8193 6.42955L28.9336 6.58358L29.0467 6.74002L29.1574 6.89766L29.2657 7.0565L29.3728 7.21655L29.4775 7.3778L29.581 7.54146L29.6821 7.70511L29.7819 7.87118L29.8794 8.03844L29.9745 8.20571L30.0683 8.37539L30.1598 8.54626L30.2488 8.71834L30.3355 8.89163L30.4209 9.06491L30.5052 9.2406L30.5858 9.4175L30.6652 9.59559L30.7422 9.77369L30.8168 9.95419L30.889 10.1347L30.96 10.3176L31.0286 10.5005L31.0948 10.6846L31.1586 10.87L31.2212 11.0565L31.2801 11.2442L31.3379 11.4319L31.3932 11.6208L31.445 11.8122L31.4955 12.0023L31.5449 12.1948L31.5906 12.3874L31.6339 12.5823L31.6748 12.7761L31.7133 12.9722L31.7506 13.1684L31.7843 13.3657L31.8156 13.5643L31.8445 13.7628L31.871 13.9626L31.8962 14.1635L31.9179 14.3645L31.9372 14.5667L31.954 14.7688L31.9672 14.9722L31.9793 15.1768L31.9889 15.3813L31.9949 15.5871L31.9985 15.7929L31.9997 15.9999L31.9985 16.2056L31.9949 16.4126L31.9889 16.6172L31.9793 16.8218L31.9672 17.0263L31.954 17.2297L31.9372 17.4319L31.9179 17.634L31.8962 17.8362L31.871 18.036L31.8445 18.2357L31.8156 18.4343L31.7843 18.6328L31.7506 18.8302L31.7133 19.0263L31.6748 19.2225L31.6339 19.4174L31.5906 19.6112L31.5449 19.8037L31.4955 19.9962L31.445 20.1876L31.3932 20.3777L31.3379 20.5666L31.2801 20.7556L31.2212 20.9421L31.1586 21.1286L31.0948 21.3139L31.0286 21.498L30.96 21.6821L30.889 21.8638L30.8168 22.0444L30.7422 22.2249L30.6652 22.4042L30.5858 22.581L30.5052 22.7579L30.4209 22.9336L30.3355 23.1081L30.2488 23.2814L30.1598 23.4523L30.0683 23.6232L29.9745 23.7928L29.8794 23.9613L29.7819 24.1274L29.6821 24.2934L29.581 24.4583L29.4775 24.6207L29.3728 24.782L29.2657 24.942L29.1574 25.1021L29.0467 25.2585L28.9336 25.415L28.8193 25.5702L28.7037 25.723L28.5858 25.8746L28.4667 26.0251L28.3451 26.1743L28.2212 26.3223L28.096 26.4679L27.9697 26.6123L27.8421 26.7555L27.7122 26.8963L27.5798 27.0359L27.4462 27.1743L27.3114 27.3115L27.1755 27.4462L27.0371 27.5798L26.8975 27.711L26.7555 27.8409L26.6135 27.9697L26.4691 28.096L26.3223 28.2212L26.1755 28.3439L26.0263 28.4655L25.8758 28.5846L25.7242 28.7025L25.5702 28.8193L25.4162 28.9336L25.2597 29.0455L25.1021 29.1562L24.9432 29.2657L24.7832 29.3728L24.6219 29.4775L24.4583 29.581L24.2946 29.6821L24.1286 29.7808L23.9613 29.8782L23.794 29.9733L23.6243 30.0672L23.4535 30.1586L23.2814 30.2477L23.1081 30.3355L22.9348 30.4209L22.7591 30.504L22.5822 30.5846L22.4041 30.664L22.226 30.741L22.0455 30.8156L21.865 30.889L21.6821 30.96L21.4992 31.0274L21.3151 31.0936L21.1298 31.1586L20.9433 31.22L20.7555 31.2801L20.5678 31.3367L20.3789 31.3921L20.1876 31.445L19.9974 31.4955L19.8049 31.5437L19.6123 31.5894L19.4174 31.6327L19.2237 31.6736L19.0275 31.7133L18.8314 31.7495L18.634 31.7831L18.4355 31.8144L18.2369 31.8445L18.0371 31.871L17.8362 31.8951L17.6352 31.9167L17.4331 31.936L17.2309 31.9528L17.0275 31.9673L16.823 31.9781L16.6184 31.9877L16.4126 31.9937L16.2068 31.9985L15.9999 31.9997L15.7941 31.9985L15.5871 31.9937L15.3825 31.9877L15.178 31.9781L14.9734 31.9673L14.77 31.9528L14.5679 31.936L14.3657 31.9167L14.1635 31.8951L13.9638 31.871L13.764 31.8445L13.5655 31.8144L13.3669 31.7831L13.1696 31.7495L12.9734 31.7133L12.7773 31.6736L12.5823 31.6327L12.3886 31.5894L12.196 31.5437L12.0035 31.4955L11.8122 31.445L11.622 31.3921L11.4331 31.3367L11.2442 31.2801L11.0577 31.22L10.8711 31.1586L10.6858 31.0936L10.5017 31.0274L10.3176 30.96L10.1359 30.889L9.95538 30.8156L9.77488 30.741L9.59558 30.664L9.41868 30.5846L9.24179 30.504L9.0661 30.4209L8.89161 30.3355L8.71833 30.2477L8.54745 30.1586L8.37657 30.0672L8.2069 29.9733L8.03843 29.8782L7.87237 29.7808L7.7063 29.6821L7.54144 29.581L7.37899 29.4775L7.21774 29.3728L7.05769 29.2657L6.89764 29.1562L6.74121 29.0455L6.58477 28.9336L6.42954 28.8193L6.27671 28.7025L6.12509 28.5846L5.97467 28.4655L5.82545 28.3439L5.67744 28.2212L5.53183 28.096L5.38743 27.9697L5.24423 27.8409L5.10343 27.711L4.96384 27.5798L4.82546 27.4462L4.68828 27.3115L4.5535 27.1743L4.41993 27.0359L4.28876 26.8963L4.1588 26.7555L4.03004 26.6123L3.90368 26.4679L3.77854 26.3223L3.65579 26.1743L3.53425 26.0251L3.41512 25.8746L3.29719 25.723L3.18046 25.5702L3.06615 25.415L2.95423 25.2585L2.84352 25.1021L2.73402 24.942L2.62692 24.782L2.52223 24.6207L2.41874 24.4583L2.31766 24.2934L2.21898 24.1274L2.12151 23.9613L2.02644 23.7928L1.93258 23.6232L1.84113 23.4523L1.75208 23.2814L1.66423 23.1081L1.57879 22.9336L1.49576 22.7579L1.41514 22.581L1.33571 22.4042L1.2587 22.2249L1.18409 22.0444L1.11069 21.8638L1.03969 21.6821L0.9723 21.498L0.906115 21.3139L0.841133 21.1286L0.779762 20.9421L0.719594 20.7556L0.663036 20.5666L0.607682 20.3777L0.554734 20.1876L0.504193 19.9962L0.456058 19.8037L0.410331 19.6112L0.36701 19.4174L0.326095 19.2225L0.286384 19.0263L0.250284 18.8302L0.21659 18.6328L0.185302 18.4343L0.155218 18.2357L0.128744 18.036L0.104677 17.8362L0.0830166 17.634L0.0637628 17.4319L0.0469157 17.2297L0.0324755 17.0263L0.0216452 16.8218L0.0120183 16.6172L0.00600154 16.4126L0.00118809 16.2056L-1.52588e-05 15.9999L0.00118809 15.7929L0.00600154 15.5871L0.0120183 15.3813L0.0216452 15.1768L0.0324755 14.9722L0.0469157 14.7688L0.0637628 14.5667L0.0830166 14.3645L0.104677 14.1635L0.128744 13.9626L0.155218 13.7628L0.185302 13.5643L0.21659 13.3657L0.250284 13.1684L0.286384 12.9722L0.326095 12.7761L0.36701 12.5823L0.410331 12.3874L0.456058 12.1948L0.504193 12.0023L0.554734 11.8122L0.607682 11.6208L0.663036 11.4319L0.719594 11.2442L0.779762 11.0565L0.841133 10.87L0.906115 10.6846L0.9723 10.5005L1.03969 10.3176L1.11069 10.1347L1.18409 9.95419L1.2587 9.77369L1.33571 9.59559L1.41514 9.4175L1.49576 9.2406L1.57879 9.06491L1.66423 8.89163L1.75208 8.71834L1.84113 8.54626L1.93258 8.37539L2.02644 8.20571L2.12151 8.03844L2.21898 7.87118L2.31766 7.70511L2.41874 7.54146L2.52223 7.3778L2.62692 7.21655L2.73402 7.0565L2.84352 6.89766L2.95423 6.74002L3.06615 6.58358L3.18046 6.42955L3.29719 6.27552L3.41512 6.1239L3.53425 5.97348L3.65579 5.82426L3.77854 5.67745L3.90368 5.53064L4.03004 5.38624L4.1588 5.24424L4.28876 5.10225L4.41993 4.96266L4.5535 4.82427L4.68828 4.68829L4.82546 4.55351L4.96384 4.41994L5.10343 4.28757L5.24423 4.15761L5.38743 4.03005L5.53183 3.9037L5.67744 3.77855L5.82545 3.6546L5.97467 3.53306L6.12509 3.41393L6.27671 3.296L6.42954 3.18048L6.58477 3.06616L6.74121 2.95305L6.89764 2.84234L7.05769 2.73403L7.21774 2.62693L7.37899 2.52224L7.54144 2.41875L7.7063 2.31767L7.87237 2.21779L8.03843 2.12032L8.2069 2.02525L8.37657 1.93139L8.54745 1.83994L8.71833 1.75089L8.89161 1.66425L9.0661 1.57881L9.24179 1.49457L9.41868 1.41395L9.59558 1.33453L9.77488 1.25751L9.95538 1.1829L10.1359 1.1107L10.3176 1.0397L10.5017 0.971112L10.6858 0.904927L10.8711 0.841149L11.0577 0.778574L11.2442 0.719609L11.4331 0.661848L11.622 0.606493L11.8122 0.553546L12.0035 0.504208L12.196 0.45487L12.3886 0.409142L12.5823 0.365821L12.7773 0.324907L12.9734 0.2864L13.1696 0.249096L13.3669 0.215401L13.5655 0.184114L13.764 0.155233L13.9638 0.12876L14.1635 0.103489L14.3657 0.0818285L14.5679 0.0625747L14.77 0.0457277L14.9734 0.0324907L15.178 0.0204571L15.3825 0.0108302L15.5871 0.00481345L15.7941 0.00120338L15.9999 0L16.2068 0.00120338ZM15.8061 1.0012L15.6124 1.00481L15.4198 1.01082L15.2285 1.01925L15.0372 1.03008L14.8458 1.04331L14.6557 1.05896L14.4668 1.07701L14.2779 1.09746L14.0901 1.12033L13.9024 1.1456L13.7159 1.17207L13.5306 1.20216L13.3452 1.23344L13.1611 1.26834L12.9782 1.30444L12.7953 1.34295L12.6136 1.38386L12.4331 1.42718L12.2526 1.47171L12.0733 1.51984L11.8952 1.56918L11.7183 1.62093L11.5414 1.67387L11.3657 1.73043L11.1912 1.78819L11.0179 1.84836L10.8459 1.90973L10.6738 1.97471L10.5029 2.0409L10.3332 2.10829L10.1648 2.17808L9.9975 2.25028L9.83023 2.32489L9.66537 2.4007L9.50051 2.47892L9.33685 2.55955L9.1744 2.64138L9.01435 2.72441L8.85431 2.81105L8.69546 2.89769L8.53782 2.98794L8.38139 3.07819L8.22615 3.17206L8.07212 3.26712L7.9193 3.36339L7.76767 3.46207L7.61725 3.56195L7.46804 3.66423L7.32002 3.76772L7.17442 3.87362L7.02881 3.98071L6.88441 4.08902L6.74241 4.19973L6.60162 4.31284L6.46203 4.42596L6.32364 4.54148L6.18646 4.65941L6.05168 4.77734L5.91691 4.89768L5.78454 5.02042L5.65337 5.14316L5.52341 5.26831L5.39585 5.39466L5.2695 5.52342L5.14435 5.65339L5.0204 5.78335L4.89886 5.91692L4.77853 6.05049L4.65939 6.18647L4.54267 6.32245L4.42715 6.46084L4.31283 6.60043L4.20091 6.74122L4.09021 6.88442L3.9819 7.02762L3.8748 7.17323L3.76891 7.32004L3.66542 7.46685L3.56313 7.61607L3.46325 7.76649L3.36458 7.91811L3.26711 8.07094L3.17204 8.22497L3.07938 8.3802L2.98793 8.53664L2.89888 8.69428L2.81103 8.85312L2.7256 9.01317L2.64136 9.17442L2.55953 9.33687L2.48011 9.49932L2.40189 9.66418L2.32608 9.83025L2.25147 9.99631L2.17927 10.1636L2.10947 10.332L2.04088 10.5017L1.9747 10.6726L1.91092 10.8447L1.84835 11.0168L1.78818 11.1912L1.73042 11.3657L1.67506 11.5414L1.62091 11.7171L1.56917 11.8952L1.51983 12.0733L1.4729 12.2526L1.42717 12.4319L1.38505 12.6136L1.34414 12.7953L1.30563 12.977L1.26833 13.1611L1.23463 13.3453L1.20334 13.5294L1.17326 13.7159L1.14558 13.9024L1.12152 14.0889L1.09865 14.2767L1.0782 14.4656L1.06014 14.6545L1.0445 14.8446L1.03126 15.036L1.02043 15.2273L1.01081 15.4199L1.00479 15.6124L1.00118 15.8049L0.999977 15.9999L1.00118 16.1936L1.00479 16.3874L1.01081 16.5799L1.02043 16.7712L1.03126 16.9626L1.0445 17.1539L1.06014 17.344L1.0782 17.533L1.09865 17.7219L1.12152 17.9096L1.14558 18.0973L1.17326 18.2839L1.20334 18.4692L1.23463 18.6545L1.26833 18.8386L1.30563 19.0215L1.34414 19.2044L1.38505 19.3861L1.42717 19.5666L1.4729 19.7471L1.51983 19.9264L1.56917 20.1045L1.62091 20.2814L1.67506 20.4583L1.73042 20.634L1.78818 20.8085L1.84835 20.9818L1.91092 21.1539L1.9747 21.3259L2.04088 21.4968L2.10947 21.6665L2.17927 21.835L2.25147 22.0022L2.32608 22.1695L2.40189 22.3344L2.48011 22.4992L2.55953 22.6629L2.64136 22.8253L2.7256 22.9854L2.81103 23.1454L2.89888 23.3043L2.98793 23.4619L3.07938 23.6183L3.17204 23.7736L3.26711 23.9276L3.36458 24.0804L3.46325 24.2321L3.56313 24.3825L3.66542 24.5317L3.76891 24.6797L3.8748 24.8253L3.9819 24.9709L4.09021 25.1153L4.20091 25.2573L4.31283 25.3981L4.42715 25.5377L4.54267 25.6761L4.65939 25.8133L4.77853 25.9481L4.89886 26.0828L5.0204 26.2152L5.14435 26.3464L5.2695 26.4763L5.39585 26.6039L5.52341 26.7302L5.65337 26.8554L5.78454 26.9793L5.91691 27.1009L6.05168 27.2212L6.18646 27.3403L6.32364 27.4571L6.46203 27.5726L6.60162 27.6869L6.74241 27.7988L6.88441 27.9095L7.02881 28.0178L7.17442 28.1249L7.32002 28.2308L7.46804 28.3343L7.61725 28.4366L7.76767 28.5365L7.9193 28.6352L8.07212 28.7326L8.22615 28.8277L8.38139 28.9204L8.53782 29.0118L8.69546 29.1009L8.85431 29.1887L9.01435 29.2741L9.1744 29.3584L9.33685 29.4402L9.50051 29.5196L9.66537 29.5978L9.83023 29.6737L9.9975 29.7483L10.1648 29.8205L10.3332 29.8903L10.5029 29.9588L10.6738 30.025L10.8459 30.0888L11.0179 30.1514L11.1912 30.2116L11.3657 30.2693L11.5414 30.3247L11.7183 30.3788L11.8952 30.4306L12.0733 30.4799L12.2526 30.5268L12.4331 30.5726L12.6136 30.6147L12.7953 30.6556L12.9782 30.6941L13.1611 30.7314L13.3452 30.7651L13.5306 30.7964L13.7159 30.8265L13.9024 30.8541L14.0901 30.8782L14.2779 30.9011L14.4668 30.9215L14.6557 30.9396L14.8458 30.9552L15.0372 30.9685L15.2285 30.9793L15.4198 30.9889L15.6124 30.9949L15.8061 30.9986L15.9999 30.9998L16.1948 30.9986L16.3873 30.9949L16.5799 30.9889L16.7724 30.9793L16.9638 30.9685L17.1551 30.9552L17.3452 30.9396L17.5341 30.9215L17.7231 30.9011L17.9108 30.8782L18.0973 30.8541L18.2838 30.8265L18.4704 30.7964L18.6545 30.7651L18.8386 30.7314L19.0227 30.6941L19.2044 30.6556L19.3861 30.6147L19.5678 30.5726L19.7471 30.5268L19.9264 30.4799L20.1045 30.4306L20.2826 30.3788L20.4583 30.3247L20.634 30.2693L20.8085 30.2116L20.983 30.1514L21.1551 30.0888L21.3271 30.025L21.498 29.9588L21.6677 29.8903L21.8362 29.8205L22.0034 29.7483L22.1695 29.6737L22.3355 29.5978L22.5004 29.5196L22.6629 29.4402L22.8253 29.3584L22.9866 29.2741L23.1466 29.1887L23.3055 29.1009L23.4631 29.0118L23.6195 28.9204L23.7748 28.8277L23.9288 28.7326L24.0816 28.6352L24.2332 28.5365L24.3837 28.4366L24.5329 28.3343L24.6797 28.2308L24.8265 28.1249L24.9721 28.0178L25.1153 27.9095L25.2585 27.7988L25.3993 27.6869L25.5389 27.5726L25.6773 27.4571L25.8133 27.3403L25.9492 27.2212L26.0828 27.1009L26.2164 26.9793L26.3463 26.8554L26.4763 26.7302L26.6051 26.6039L26.7314 26.4763L26.8566 26.3464L26.9793 26.2152L27.1021 26.0828L27.2224 25.9481L27.3403 25.8133L27.4583 25.6761L27.5738 25.5377L27.6869 25.3981L27.8 25.2573L27.9107 25.1153L28.019 24.9709L28.1261 24.8253L28.232 24.6797L28.3355 24.5317L28.4378 24.3825L28.5377 24.2321L28.6363 24.0804L28.7326 23.9276L28.8277 23.7736L28.9215 23.6183L29.0118 23.4619L29.102 23.3043L29.1887 23.1454L29.2753 22.9854L29.3584 22.8253L29.4402 22.6629L29.5208 22.4992L29.599 22.3344L29.6748 22.1695L29.7494 22.0022L29.8217 21.835L29.8914 21.6665L29.9588 21.4968L30.025 21.3259L30.09 21.1539L30.1514 20.9818L30.2115 20.8085L30.2693 20.634L30.3259 20.4583L30.3788 20.2814L30.4306 20.1045L30.4799 19.9264L30.528 19.7471L30.5725 19.5666L30.6159 19.3861L30.6568 19.2044L30.6953 19.0215L30.7314 18.8386L30.7663 18.6545L30.7976 18.4692L30.8277 18.2839L30.8541 18.0973L30.8794 17.9096L30.9023 17.7219L30.9227 17.533L30.9408 17.344L30.9564 17.1539L30.9697 16.9626L30.9805 16.7712L30.9889 16.5799L30.9949 16.3874L30.9985 16.1936L30.9997 15.9999L30.9985 15.8049L30.9949 15.6124L30.9889 15.4199L30.9805 15.2273L30.9697 15.036L30.9564 14.8446L30.9408 14.6545L30.9227 14.4656L30.9023 14.2767L30.8794 14.0889L30.8541 13.9024L30.8277 13.7159L30.7976 13.5294L30.7663 13.3453L30.7314 13.1611L30.6953 12.977L30.6568 12.7953L30.6159 12.6136L30.5725 12.4319L30.528 12.2526L30.4799 12.0733L30.4306 11.8952L30.3788 11.7171L30.3259 11.5414L30.2693 11.3657L30.2115 11.1912L30.1514 11.0168L30.09 10.8447L30.025 10.6726L29.9588 10.5017L29.8914 10.332L29.8217 10.1636L29.7494 9.99631L29.6748 9.83025L29.599 9.66418L29.5208 9.49932L29.4402 9.33687L29.3584 9.17442L29.2753 9.01317L29.1887 8.85312L29.102 8.69428L29.0118 8.53664L28.9215 8.3802L28.8277 8.22497L28.7326 8.07094L28.6363 7.91811L28.5377 7.76649L28.4378 7.61607L28.3355 7.46685L28.232 7.32004L28.1261 7.17323L28.019 7.02762L27.9107 6.88442L27.8 6.74122L27.6869 6.60043L27.5738 6.46084L27.4583 6.32245L27.3403 6.18647L27.2224 6.05049L27.1021 5.91692L26.9793 5.78335L26.8566 5.65339L26.7314 5.52342L26.6051 5.39466L26.4763 5.26831L26.3463 5.14316L26.2164 5.02042L26.0828 4.89768L25.9492 4.77734L25.8133 4.65941L25.6773 4.54148L25.5389 4.42596L25.3993 4.31284L25.2573 4.19973L25.1153 4.08902L24.9721 3.98071L24.8265 3.87362L24.6797 3.76772L24.5329 3.66423L24.3837 3.56195L24.2332 3.46207L24.0816 3.36339L23.9288 3.26712L23.7748 3.17206L23.6195 3.07819L23.4631 2.98794L23.3055 2.89769L23.1466 2.81105L22.9866 2.72441L22.8253 2.64138L22.6629 2.55955L22.5004 2.47892L22.3355 2.4007L22.1695 2.32489L22.0034 2.25028L21.8362 2.17808L21.6677 2.10829L21.498 2.0409L21.3271 1.97471L21.1551 1.90973L20.983 1.84836L20.8085 1.78819L20.634 1.73043L20.4583 1.67387L20.2826 1.62093L20.1045 1.56918L19.9264 1.51984L19.7471 1.47171L19.5678 1.42718L19.3861 1.38386L19.2044 1.34295L19.0227 1.30444L18.8386 1.26834L18.6545 1.23344L18.4704 1.20216L18.2838 1.17207L18.0973 1.1456L17.9108 1.12033L17.7231 1.09746L17.5341 1.07701L17.3452 1.05896L17.1551 1.04331L16.9638 1.03008L16.7724 1.01925L16.5799 1.01082L16.3873 1.00481L16.1948 1.0012L15.9999 0.999992L15.8061 1.0012Z" fill="#666D89"/>
</g>
<defs>
<clipPath id="clip0">
<rect width="32" height="32" fill="white"/>
</clipPath>
</defs>
</svg>
